<svg width="109" height="132" viewBox="0 0 109 132" fill="none" xmlns="http://www.w3.org/2000/svg">
<path d="M19.1875 75.4266C20.9813 73.9484 22.8703 72.5937 24.8547 71.3625L52 70.6875L78.8125 71.1797C80.9187 72.4672 82.9187 73.8937 84.8125 75.4594L89.5 103.5L84.8125 131.625H19.1875L14.5 103.5L19.1875 75.4266Z" fill="#E6E6E6"/>
<path d="M54.3438 105.047V131.625H49.6562V104.438L30.9062 73.0312L37.2156 65.8031L52 63.6562L66.7563 65.8031L73.0938 73.0312L54.3438 105.047Z" fill="#00A6ED"/>
<path d="M84.8125 75.5063C90.6796 80.3379 95.4038 86.409 98.6457 93.2835C101.888 100.158 103.567 107.665 103.562 115.266V131.625H84.8125V75.5063ZM67.0656 65.9438C71.5188 67.3031 75.7141 69.2531 79.5625 71.6953L80.4531 81.0469C80.5 81.6094 80.125 82.125 79.5625 82.2187L75.8594 82.875C75.0156 83.0156 74.6875 84 75.25 84.6562L78.8125 88.5938C79.1875 89.0156 79.1875 89.6719 78.7656 90.0937L55.8906 113.438C55.3281 114 54.3438 113.578 54.3438 112.781V95.8594C54.3438 95.6719 54.3906 95.4844 54.4375 95.3438L67.0656 65.9438ZM24.4516 71.6625C28.3 69.225 32.4953 67.2844 36.9484 65.9297L49.5625 95.25L49.5859 95.3438C49.6234 95.4844 49.6562 95.6109 49.6562 95.7656V112.687C49.6562 113.531 48.6719 113.906 48.1094 113.344L25.2344 90C24.8125 89.5781 24.8125 88.9687 25.1875 88.5L28.75 84.6094C28.8782 84.4666 28.966 84.2923 29.0044 84.1043C29.0427 83.9163 29.0301 83.7215 28.968 83.5399C28.9059 83.3584 28.7965 83.1967 28.6511 83.0716C28.5056 82.9465 28.3294 82.8624 28.1406 82.8281L24.4375 82.1719C23.875 82.0313 23.5 81.5625 23.5937 80.9531L24.4516 71.6625ZM19.1875 75.4734V131.63H0.4375V115.27C0.4375 99.2391 7.73125 84.9281 19.1875 75.4734Z" fill="#F4F4F4"/>
<path d="M103.562 98.8125C106.141 98.8125 108.25 100.734 108.25 103.088V112.875H98.875V103.088C98.9219 100.734 100.984 98.8125 103.562 98.8125Z" fill="#F4C6AD"/>
<path d="M104.594 84.75H103.563V91.5L96.5313 96.4688L89.5 91.5V84.75H88.4688C87.6719 84.75 87.0156 83.7844 87.0156 82.6125V82.2C87.0156 81.0281 87.6719 80.0625 88.4688 80.0625H104.594C105.391 80.0625 106.047 81.0281 106.047 82.2V82.6125C106 83.7844 105.344 84.75 104.594 84.75Z" fill="#B4F6FC"/>
<path d="M103.562 91.5H89.5V121.078H103.562V91.5Z" fill="#C3EF3C"/>
<path d="M90.8314 95.6719H92.772C92.9829 95.6719 93.1704 95.25 93.1517 94.7344V94.5469C93.1517 94.0313 92.9829 93.6094 92.7767 93.6094H90.8314C90.6251 93.6094 90.4517 94.0313 90.4517 94.5469V94.7344C90.4517 95.25 90.6251 95.6719 90.8314 95.6719ZM90.8314 104.063H92.772C92.9829 104.063 93.1704 103.641 93.1517 103.125V102.937C93.1517 102.422 92.9829 102 92.7767 102H90.8314C90.6251 102 90.4517 102.422 90.4517 102.937V103.125C90.4517 103.641 90.6251 104.063 90.8314 104.063Z" fill="#008463"/>
<path d="M87.2031 110.531C87.2406 108.656 88.7359 107.016 90.4844 107.016H104.533C106.586 107.016 108.25 108.844 108.25 111.094V127.547C108.25 129.797 106.586 131.625 104.533 131.625H90.4844C88.7359 131.625 87.2406 130.172 87.2031 128.25C87.1692 127.666 87.2798 127.082 87.525 126.551C87.7703 126.019 88.1427 125.556 88.6094 125.203C88.1483 124.874 87.7748 124.437 87.5215 123.931C87.2682 123.424 87.1428 122.863 87.1563 122.297C87.1563 121.078 87.7563 120 88.6094 119.391C88.1483 119.062 87.7748 118.625 87.5215 118.118C87.2682 117.612 87.1428 117.051 87.1563 116.484C87.1563 115.266 87.7563 114.187 88.6094 113.578C88.1516 113.217 87.7857 112.753 87.5413 112.223C87.297 111.694 87.1811 111.114 87.2031 110.531Z" fill="#FFD7C2"/>
<path d="M52 77.7188C46.8109 77.7188 42.625 73.2 42.625 67.5984V55.0312C42.625 49.4297 46.8109 44.9109 52 44.9109C57.1891 44.9109 61.375 49.4297 61.375 55.0312V67.6031C61.375 73.2047 57.1891 77.7188 52 77.7188ZM36.8594 40.6406C36.8594 42.7168 36.0346 44.7079 34.5666 46.1759C33.0985 47.644 31.1074 48.4688 29.0313 48.4688C26.9551 48.4688 24.964 47.644 23.4959 46.1759C22.0279 44.7079 21.2031 42.7168 21.2031 40.6406C21.2031 38.5645 22.0279 36.5734 23.4959 35.1053C24.964 33.6372 26.9551 32.8125 29.0313 32.8125C31.1074 32.8125 33.0985 33.6372 34.5666 35.1053C36.0346 36.5734 36.8594 38.5645 36.8594 40.6406ZM82.75 40.6406C82.75 42.7168 81.9252 44.7079 80.4572 46.1759C78.9891 47.644 76.998 48.4688 74.9219 48.4688C72.8457 48.4688 70.8546 47.644 69.3866 46.1759C67.9185 44.7079 67.0937 42.7168 67.0937 40.6406C67.0937 38.5645 67.9185 36.5734 69.3866 35.1053C70.8546 33.6372 72.8457 32.8125 74.9219 32.8125C76.998 32.8125 78.9891 33.6372 80.4572 35.1053C81.9252 36.5734 82.75 38.5645 82.75 40.6406Z" fill="#F4C6AD"/>
<path d="M49.9143 5.0625C36.8549 5.0625 26.5236 16.3453 27.4471 29.6578L29.3033 56.3344C30.0908 64.6922 36.5736 70.6875 44.4486 70.6875H59.5518C67.4268 70.6875 73.9096 64.6875 74.6971 56.3344L76.5533 29.6625C77.4768 16.3922 67.1502 5.0625 54.0861 5.0625H49.9143Z" fill="#FFD7C2"/>
<path d="M76.2952 11.5875L74.3358 10.6031C72.9485 9.88807 71.6854 8.95423 70.5952 7.83746L66.7655 3.89996C65.3829 2.46206 63.6147 1.45389 61.6731 0.99656C59.7315 0.539224 57.6991 0.652171 55.8202 1.32183C53.3592 2.21246 50.6217 2.21246 48.1608 1.32183C44.8327 -0.412544 40.7733 0.290582 38.0827 3.00933L33.4327 7.79058C32.3358 8.91558 31.0608 9.85308 29.6452 10.6031L27.7327 11.5875C25.9597 12.5249 24.5311 14.0023 23.6538 15.8058C22.7765 17.6093 22.496 19.6452 22.853 21.6187L25.4499 36.2906C25.7264 37.7437 26.9545 38.8218 28.3702 38.8687L27.9108 32.025C27.8716 31.3456 27.9823 30.6659 28.235 30.034C28.4877 29.4022 28.8763 28.8336 29.3733 28.3687L30.2405 27.5718C31.4264 26.4937 32.0639 24.9468 32.0639 23.3531V19.2281C32.0639 18.0562 32.8374 17.025 33.9342 16.7437C36.8967 15.9937 43.2342 14.6812 51.9905 14.6812C60.7467 14.6812 67.0842 15.9937 70.0467 16.7437C71.1436 17.025 71.9217 18.0562 71.9217 19.2281V23.3531C71.9217 24.9468 72.6014 26.4937 73.7405 27.5718L74.6545 28.4156C75.6577 29.3531 76.2014 30.6656 76.1124 32.0718L75.6577 38.8687C76.3553 38.8202 77.0168 38.5403 77.5373 38.0733C78.0578 37.6063 78.4075 36.9789 78.5311 36.2906L81.128 21.6187C81.5157 19.6489 81.2543 17.6065 80.3829 15.7979C79.5116 13.9892 78.0773 12.5119 76.2952 11.5875Z" fill="#212121"/>
<path d="M50.3783 39.2343L48.0533 47.3812C47.5705 49.05 48.7095 50.7656 50.3361 50.7656H53.758C55.3751 50.7656 56.5189 49.05 56.0361 47.3812L53.7111 39.2343C53.2283 37.4203 50.8986 37.4203 50.3783 39.2343Z" fill="#E5AF93"/>
<path d="M64.7688 21.4688H39.4187C32.2234 21.4688 26.2656 27.1734 26.2188 34.3359C26.2188 41.4516 32.0781 47.25 39.2781 47.25C43.8016 47.25 47.8094 44.9391 50.1391 41.4516C50.3486 41.1451 50.6298 40.8944 50.9581 40.7211C51.2865 40.5479 51.6522 40.4573 52.0234 40.4573C52.3947 40.4573 52.7604 40.5479 53.0887 40.7211C53.4171 40.8944 53.6982 41.1451 53.9078 41.4516C55.1515 43.2855 56.8392 44.7748 58.8138 45.7805C60.7883 46.7862 62.9853 47.2756 65.2 47.2031C71.9688 46.9687 77.6828 41.1703 77.7812 34.4766C77.875 27.3609 72.0156 21.4688 64.7688 21.4688Z" fill="#F4C6AD"/>
<path d="M34.7033 40.228C35.4064 37.3687 38.0314 35.2124 41.1251 35.2124C44.3595 35.2124 47.0314 37.5093 47.6408 40.5561C47.7814 41.2124 47.2658 41.8218 46.5626 41.8218H35.9689C35.1251 41.8218 34.4689 41.0249 34.7033 40.228ZM70.2814 40.228C69.5783 37.3687 66.9533 35.2124 63.8595 35.2124C60.6252 35.2124 57.9533 37.5093 57.3439 40.5561C57.2033 41.2124 57.7189 41.8218 58.422 41.8218H69.0158C69.8595 41.8218 70.4689 41.0718 70.2814 40.228Z" fill="white"/>
<path d="M37.8438 40.7437C37.8438 38.3999 39.7656 36.478 42.1094 36.478C44.4531 36.478 46.3281 38.353 46.3281 40.6968C46.3281 41.1187 46.2813 41.4937 46.1875 41.8687H37.9844C37.8922 41.5007 37.8449 41.123 37.8438 40.7437ZM67.1406 40.7437C67.1406 38.3999 65.2188 36.478 62.875 36.478C60.5312 36.478 58.6563 38.353 58.6563 40.7437C58.6563 41.1187 58.7031 41.4937 58.7969 41.8687H67C67.0938 41.4937 67.1406 41.1187 67.1406 40.7437Z" fill="#7D4533"/>
<path d="M42.1094 38.2593C42.5297 38.2549 42.9439 38.3602 43.3111 38.5647C43.6784 38.7692 43.986 39.0659 44.2037 39.4255C44.4213 39.7851 44.5415 40.1952 44.5524 40.6154C44.5632 41.0356 44.4644 41.4514 44.2656 41.8218H39.9531C39.7543 41.4514 39.6555 41.0356 39.6663 40.6154C39.6772 40.1952 39.7974 39.7851 40.015 39.4255C40.2327 39.0659 40.5403 38.7692 40.9076 38.5647C41.2748 38.3602 41.689 38.2549 42.1094 38.2593ZM62.875 38.2593C62.4547 38.2549 62.0404 38.3602 61.6732 38.5647C61.3059 38.7692 60.9983 39.0659 60.7807 39.4255C60.563 39.7851 60.4428 40.1952 60.432 40.6154C60.4211 41.0356 60.5199 41.4514 60.7187 41.8218H65.0312C65.2187 41.4937 65.3125 41.1187 65.3125 40.6968C65.3125 39.3374 64.2344 38.2593 62.875 38.2593Z" fill="black"/>
<path d="M41.4062 39.0562C41.4062 39.2551 41.3272 39.4458 41.1866 39.5865C41.0459 39.7271 40.8552 39.8062 40.6562 39.8062C40.4573 39.8062 40.2666 39.7271 40.1259 39.5865C39.9853 39.4458 39.9062 39.2551 39.9062 39.0562C39.9062 38.8572 39.9853 38.6665 40.1259 38.5258C40.2666 38.3852 40.4573 38.3062 40.6562 38.3062C40.8552 38.3062 41.0459 38.3852 41.1866 38.5258C41.3272 38.6665 41.4062 38.8572 41.4062 39.0562ZM62.3125 39.0562C62.3125 39.2551 62.2335 39.4458 62.0928 39.5865C61.9522 39.7271 61.7614 39.8062 61.5625 39.8062C61.3636 39.8062 61.1728 39.7271 61.0322 39.5865C60.8915 39.4458 60.8125 39.2551 60.8125 39.0562C60.8125 38.8572 60.8915 38.6665 61.0322 38.5258C61.1728 38.3852 61.3636 38.3062 61.5625 38.3062C61.7614 38.3062 61.9522 38.3852 62.0928 38.5258C62.2335 38.6665 62.3125 38.8572 62.3125 39.0562Z" fill="white"/>
<path d="M67.1874 32.8687C67.703 33.1968 68.2186 33.3843 68.7811 33.3843C69.578 33.3843 70.328 33.0562 70.7968 32.3531C71.6874 31.2281 71.453 29.5874 70.328 28.6968C70.1874 28.5562 66.2499 25.5562 60.5311 26.2593C59.8758 26.3801 59.2909 26.7456 58.8951 27.2817C58.4993 27.8178 58.3222 28.4843 58.3997 29.1462C58.4772 29.808 58.8036 30.4156 59.3125 30.8458C59.8215 31.2759 60.475 31.4964 61.1405 31.4624C63.2591 31.1992 65.4024 31.6976 67.1874 32.8687ZM34.1405 32.3531C34.6093 33.0093 35.4061 33.3843 36.203 33.3843C36.7186 33.3843 37.2811 33.1968 37.7499 32.8687C37.8436 32.7749 40.2343 31.0406 43.7968 31.4624C45.2499 31.6031 46.5155 30.5718 46.703 29.1656C46.77 28.4782 46.5682 27.7916 46.14 27.2498C45.7118 26.708 45.0904 26.353 44.4061 26.2593C38.7343 25.6031 34.7499 28.5562 34.6093 28.6968C33.4843 29.5874 33.2499 31.1812 34.1405 32.3531Z" fill="#212121"/>
<path d="M52.0001 55.2469C49.422 55.2469 46.9845 54.5906 44.9314 53.4422C44.2142 53.0438 43.497 53.8922 43.9282 54.5953C45.6485 57.3469 48.611 59.1984 52.0001 59.1984C55.3939 59.1984 58.3564 57.3469 60.0767 54.5953C60.5079 53.8922 59.7439 53.0953 59.0736 53.4422C56.9077 54.6358 54.4731 55.257 52.0001 55.2469Z" fill="#990838"/>
<path d="M24.9814 34.3265C25.033 26.4515 31.5721 20.2312 39.4189 20.2312H64.7689C72.6908 20.2312 79.1221 26.6718 79.0189 34.4953C78.9111 41.8546 72.658 48.1828 65.2424 48.4406H65.2377C62.8151 48.5211 60.4116 47.9864 58.2516 46.8863C56.0916 45.7862 54.2457 44.1567 52.8861 42.15C52.7893 42.0117 52.6606 41.8988 52.5109 41.8208C52.3611 41.7428 52.1948 41.7021 52.026 41.7021C51.8572 41.7021 51.6908 41.7428 51.5411 41.8208C51.3914 41.8988 51.2626 42.0117 51.1658 42.15C49.8577 44.1018 48.0887 45.7012 46.0153 46.8066C43.9419 47.912 41.628 48.4893 39.2783 48.4874C31.4127 48.4874 24.9814 42.15 24.9814 34.3359V34.3265ZM27.4564 34.3406C27.4564 40.7625 32.7533 46.0125 39.2783 46.0125C43.3752 46.0125 46.9986 43.9218 49.1127 40.7625L49.1221 40.7531C49.4448 40.2813 49.8778 39.8953 50.3834 39.6286C50.889 39.3619 51.452 39.2225 52.0236 39.2225C52.5953 39.2225 53.1583 39.3619 53.6639 39.6286C54.1695 39.8953 54.6024 40.2813 54.9252 40.7531C56.0504 42.4165 57.5795 43.7717 59.3693 44.6826C61.1591 45.5935 63.1509 46.0349 65.158 45.9656C71.2752 45.7546 76.4549 40.4812 76.5486 34.4625C76.6283 28.0453 71.3408 22.7062 64.7689 22.7062H39.4189C32.8752 22.7062 27.4986 27.8859 27.4564 34.3406Z" fill="#9B9B9B"/>
</svg>
