<svg width="111" height="127" viewBox="0 0 111 127" fill="none" xmlns="http://www.w3.org/2000/svg">
<path d="M106.771 63.4624C104.03 59.2709 100.303 55.8154 95.9167 53.3985C91.5303 50.9816 86.6182 49.677 81.6106 49.599C81.5348 47.4312 81.259 45.275 80.7866 43.1579C80.6165 42.3335 80.2826 41.5517 79.8048 40.8587C79.327 40.1657 78.715 39.5756 78.005 39.1235C77.2949 38.6713 76.5014 38.3663 75.6713 38.2264C74.8413 38.0866 73.9916 38.1147 73.1726 38.3093C72.3536 38.5038 71.582 38.8607 70.9035 39.3589C70.225 39.8571 69.6534 40.4864 69.2226 41.2096C68.7917 41.9327 68.5104 42.735 68.3953 43.5688C68.2801 44.4027 68.3335 45.2511 68.5523 46.064C68.8303 47.3073 69.0028 48.5719 69.0681 49.8443C62.0517 50.7146 55.1703 52.4513 48.5812 55.0148C48.7259 47.4415 49.0656 39.8745 49.8204 32.3264L50.0594 29.9235C57.4298 28.9226 64.7411 27.5263 71.9616 25.7406L72.7164 25.5519C73.5454 25.3806 74.3313 25.0436 75.027 24.5613C75.7227 24.079 76.3139 23.4613 76.7651 22.745C77.2164 22.0288 77.5184 21.2288 77.6532 20.3931C77.7879 19.5573 77.7525 18.703 77.5492 17.8812C77.3459 17.0595 76.9788 16.2872 76.4699 15.6107C75.961 14.9342 75.3208 14.3674 74.5876 13.9442C73.8545 13.521 73.0434 13.2502 72.2031 13.1479C71.3627 13.0457 70.5104 13.1141 69.6971 13.3491L68.9297 13.5378C63.1303 14.9845 57.2553 16.079 51.3552 16.9974L52.305 7.4993C52.4718 5.8394 51.9724 4.18121 50.9166 2.88952C50.3939 2.24994 49.7503 1.71959 49.0225 1.32875C48.2948 0.937909 47.4972 0.69423 46.6753 0.611627C45.0154 0.444803 43.3572 0.944203 42.0656 1.99997C40.7739 3.05573 39.9545 4.58138 39.7877 6.24127L38.5548 18.5699C32.6798 19.092 26.7923 19.4505 20.8859 19.4505C19.2176 19.4505 17.6177 20.1132 16.4381 21.2928C15.2585 22.4725 14.5958 24.0724 14.5958 25.7406C14.5958 27.4089 15.2585 29.0088 16.4381 30.1884C17.6177 31.368 19.2176 32.0307 20.8859 32.0307C26.3583 32.0307 31.8307 31.7414 37.2842 31.3137C36.3658 41.1365 35.9396 50.9991 36.0073 60.8646C35.1644 61.3238 34.309 61.7578 33.4724 62.2484C29.1943 64.6986 25.0973 67.4523 21.213 70.4884L21.0746 70.6017C14.7619 75.4651 9.15428 81.1807 4.41209 87.585C2.21106 90.6292 0.967409 94.2605 0.839979 98.015C0.71255 101.769 1.70713 105.477 3.69668 108.663C5.68623 111.85 8.58044 114.371 12.0097 115.905C15.4389 117.439 19.2475 117.915 22.949 117.274C29.1933 116.091 35.2142 113.939 40.7941 110.896C41.571 112.117 42.7466 113.032 44.1213 113.484C45.4959 113.936 46.9849 113.899 48.3351 113.378C49.6852 112.857 50.8134 111.885 51.528 110.626C52.2425 109.368 52.4993 107.901 52.2547 106.474C52.0974 105.562 52.0282 104.644 51.8898 103.725C54.7937 101.478 57.5541 99.0519 60.155 96.4603C65.2914 91.3382 69.7344 85.565 73.3706 79.2883L73.7794 78.5461C74.5258 77.2252 75.2219 75.8937 75.8677 74.5519C76.199 73.8516 76.5156 73.1534 76.8175 72.4573C77.5861 70.7322 78.2766 68.9734 78.887 67.1861L79.4531 65.3809C79.7676 64.3179 80.0884 63.2611 80.34 62.2107L80.3714 62.0974C83.3799 62.0568 86.355 62.7313 89.0518 64.0654C91.7486 65.3996 94.0898 67.3553 95.8828 69.7714C102.292 80.886 89.8255 101.077 68.0994 114.771C67.4006 115.211 66.7954 115.786 66.3185 116.46C65.8415 117.135 65.502 117.897 65.3195 118.702C65.137 119.508 65.1149 120.342 65.2547 121.156C65.3944 121.97 65.6931 122.749 66.1338 123.448C66.5745 124.147 67.1485 124.752 67.8231 125.229C68.4976 125.706 69.2595 126.045 70.0653 126.228C70.871 126.41 71.7048 126.433 72.5191 126.293C73.3334 126.153 74.1122 125.854 74.811 125.414C103.11 107.575 116.854 80.9489 106.771 63.4624ZM20.7475 104.889C19.5172 105.088 18.2555 104.919 17.1209 104.403C15.9863 103.888 15.0296 103.048 14.3708 101.99C13.7121 100.932 13.3808 99.7028 13.4186 98.4571C13.4564 97.2113 13.8615 96.0046 14.5832 94.9884C18.6991 89.4844 23.5475 84.5684 28.9938 80.3765L29.1637 80.2444C31.4781 78.4634 33.8797 76.7987 36.3596 75.2563C36.737 82.773 37.4477 90.2645 38.4101 97.7372C33.0179 101.197 27.0281 103.623 20.7475 104.889ZM66.854 63.4813C66.278 65.1504 65.6145 66.7881 64.8663 68.3876C64.5099 69.1424 64.1325 69.893 63.7341 70.6394C63.1261 71.8052 62.474 72.9668 61.7779 74.1241C61.2453 75.0047 60.6897 75.8812 60.111 76.7534C57.5148 80.6351 54.5488 84.2562 51.2545 87.5661C50.8142 88.0064 50.355 88.4027 49.9084 88.8241C49.2249 82.1272 48.7825 75.4136 48.5812 68.6832C54.4796 65.971 60.6912 63.9998 67.0742 62.8145L66.854 63.4813Z" fill="black"/>
</svg>
