<svg width="30" height="31" viewBox="0 0 30 31" fill="none" xmlns="http://www.w3.org/2000/svg">
<path d="M28.7752 16.9619L30.0001 12.9605L27.5741 11.6578L28.8101 9.10035L25.5875 6.62155L21.4637 7.43134L20.7021 7.69263V6.84813L20.1586 2.46417L16.9257 0L15.0002 2.02891V26.1865L15.4715 26.8705L18.3561 30.08L22.3451 30.0717L22.7711 27.2367L25.4614 27.6853L26.7014 23.6893L24.6966 19.8062L24.2253 19.1222L24.9877 18.8617L28.7752 16.9619Z" fill="#F48FB1"/>
<path d="M13.0747 0L9.84176 2.46417L9.2983 6.84813V7.69263L8.53646 7.43134L4.4124 6.62235L1.19004 9.10035L2.42625 11.6578L0 12.9605L1.2249 16.9619L5.01281 18.8617L5.77523 19.1222L5.30414 19.8062L3.29877 23.6893L4.53973 27.6853L7.22941 27.2367L7.65463 30.0717L11.6442 30.08L14.5288 26.8705L15.0001 26.1865V2.02891L13.0747 0Z" fill="#F48FB1"/>
</svg>
