<svg width="114" height="137" viewBox="0 0 114 137" fill="none" xmlns="http://www.w3.org/2000/svg">
<path d="M99.1875 42.875H14.8125C11.084 42.8787 7.50935 44.3615 4.87292 46.9979C2.2365 49.6344 0.753723 53.209 0.75 56.9375V85.0625C0.75 87.5489 1.73772 89.9335 3.49587 91.6916C5.25403 93.4498 7.6386 94.4375 10.125 94.4375V127.25C10.125 129.736 11.1127 132.121 12.8709 133.879C14.629 135.637 17.0136 136.625 19.5 136.625H38.25C40.7364 136.625 43.121 135.637 44.8791 133.879C46.6373 132.121 47.625 129.736 47.625 127.25V71H38.25V127.25H19.5V85.0625H10.125V56.9375C10.125 55.6943 10.6189 54.502 11.4979 53.6229C12.377 52.7439 13.5693 52.25 14.8125 52.25H99.1875C100.431 52.25 101.623 52.7439 102.502 53.6229C103.381 54.502 103.875 55.6943 103.875 56.9375V85.0625H94.5V127.25H75.75V71H66.375V127.25C66.375 129.736 67.3627 132.121 69.1209 133.879C70.879 135.637 73.2636 136.625 75.75 136.625H94.5C96.9864 136.625 99.371 135.637 101.129 133.879C102.887 132.121 103.875 129.736 103.875 127.25V94.4375C106.361 94.4375 108.746 93.4498 110.504 91.6916C112.262 89.9335 113.25 87.5489 113.25 85.0625V56.9375C113.246 53.209 111.764 49.6344 109.127 46.9979C106.491 44.3615 102.916 42.8787 99.1875 42.875ZM28.875 38.1875C25.1666 38.1875 21.5415 37.0878 18.4581 35.0276C15.3746 32.9673 12.9714 30.0389 11.5523 26.6128C10.1331 23.1867 9.7618 19.4167 10.4853 15.7796C11.2087 12.1424 12.9945 8.80149 15.6167 6.17926C18.239 3.55702 21.5799 1.77126 25.2171 1.04778C28.8542 0.324312 32.6242 0.695624 36.0503 2.11477C39.4764 3.53391 42.4048 5.93714 44.4651 9.02057C46.5253 12.104 47.625 15.7291 47.625 19.4375C47.62 24.4088 45.643 29.175 42.1278 32.6903C38.6125 36.2055 33.8463 38.1825 28.875 38.1875ZM28.875 10.0625C27.0208 10.0625 25.2082 10.6123 23.6665 11.6425C22.1248 12.6726 20.9232 14.1368 20.2136 15.8499C19.5041 17.5629 19.3184 19.4479 19.6801 21.2665C20.0419 23.0851 20.9348 24.7555 22.2459 26.0666C23.557 27.3778 25.2275 28.2706 27.046 28.6324C28.8646 28.9941 30.7496 28.8085 32.4627 28.0989C34.1757 27.3893 35.6399 26.1877 36.67 24.646C37.7002 23.1043 38.25 21.2917 38.25 19.4375C38.25 16.9511 37.2623 14.5665 35.5041 12.8084C33.746 11.0502 31.3614 10.0625 28.875 10.0625ZM85.125 38.1875C81.4166 38.1875 77.7915 37.0878 74.7081 35.0276C71.6246 32.9673 69.2214 30.0389 67.8023 26.6128C66.3831 23.1867 66.0118 19.4167 66.7353 15.7796C67.4587 12.1424 69.2445 8.80149 71.8668 6.17926C74.489 3.55702 77.8299 1.77126 81.4671 1.04778C85.1042 0.324312 88.8742 0.695624 92.3003 2.11477C95.7264 3.53391 98.6548 5.93714 100.715 9.02057C102.775 12.104 103.875 15.7291 103.875 19.4375C103.87 24.4088 101.893 29.175 98.3778 32.6903C94.8625 36.2055 90.0963 38.1825 85.125 38.1875ZM85.125 10.0625C83.2708 10.0625 81.4582 10.6123 79.9165 11.6425C78.3748 12.6726 77.1732 14.1368 76.4636 15.8499C75.7541 17.5629 75.5684 19.4479 75.9301 21.2665C76.2919 23.0851 77.1848 24.7555 78.4959 26.0666C79.807 27.3778 81.4775 28.2706 83.296 28.6324C85.1146 28.9941 86.9996 28.8085 88.7127 28.0989C90.4257 27.3893 91.8899 26.1877 92.92 24.646C93.9502 23.1043 94.5 21.2917 94.5 19.4375C94.5 16.9511 93.5123 14.5665 91.7541 12.8084C89.996 11.0502 87.6114 10.0625 85.125 10.0625Z" fill="black"/>
</svg>
