<svg width="100" height="100" viewBox="0 0 100 100" fill="none" xmlns="http://www.w3.org/2000/svg">
<path d="M49.5979 89.6626C54.1633 89.6626 57.8643 85.9616 57.8643 81.3962C57.8643 76.8309 54.1633 73.1299 49.5979 73.1299C45.0325 73.1299 41.3315 76.8309 41.3315 81.3962C41.3315 85.9616 45.0325 89.6626 49.5979 89.6626Z" fill="black"/>
<path d="M80.404 48.7991L80.7071 48.3307C81.0062 47.867 81.2102 47.3484 81.307 46.8051C81.4038 46.2619 81.3916 45.7048 81.2711 45.1663C81.1506 44.6278 80.9241 44.1186 80.605 43.6685C80.2858 43.2183 79.8803 42.8361 79.412 42.5442C70.4528 37.0095 60.1289 34.0803 49.598 34.085C48.055 34.085 46.5395 34.085 45.0515 34.2778L53.8965 43.1228C61.3217 43.779 68.4917 46.1565 74.8379 50.0666C75.7489 50.6186 76.8387 50.795 77.8773 50.5585C78.9158 50.322 79.8218 49.6911 80.404 48.7991Z" fill="black"/>
<path d="M90.2684 25.8459C81.0852 20.1184 70.7961 16.3944 60.0744 14.9177C49.3526 13.441 38.4399 14.2448 28.0503 17.2765L35.2971 24.5233C52.6107 20.8064 70.6912 23.9896 85.6944 33.3958C86.6004 33.9311 87.6773 34.098 88.7028 33.8621C89.7283 33.6262 90.6241 33.0056 91.2052 32.1283L91.5084 31.6599C91.8144 31.1985 92.0252 30.6807 92.1286 30.1368C92.2319 29.5929 92.2256 29.0338 92.1102 28.4923C91.9947 27.9509 91.7723 27.4379 91.456 26.9835C91.1398 26.529 90.736 26.1423 90.2684 25.8459Z" fill="black"/>
<path d="M8.26627 13.0883L16.8082 21.6302C14.041 22.9078 11.354 24.3525 8.76225 25.9563C8.28793 26.246 7.87647 26.6278 7.55214 27.0791C7.22782 27.5305 6.9972 28.0422 6.87392 28.5841C6.75063 29.1261 6.73717 29.6872 6.83434 30.2345C6.9315 30.7817 7.13732 31.3039 7.43963 31.7703L7.74273 32.2387C8.32388 33.116 9.21967 33.7366 10.2452 33.9725C11.2707 34.2083 12.3476 34.0414 13.2536 33.5062C16.4722 31.4816 19.8549 29.7303 23.3661 28.2709L32.0183 36.923C27.6399 38.3306 23.4485 40.2644 19.5361 42.6819C19.07 42.976 18.6671 43.3598 18.3506 43.811C18.0341 44.2622 17.8104 44.7717 17.6925 45.3101C17.5745 45.8484 17.5647 46.4048 17.6636 46.947C17.7625 47.4892 17.9682 48.0063 18.2686 48.4683L18.5717 48.9367C19.1528 49.814 20.0486 50.4346 21.0741 50.6705C22.0996 50.9064 23.1765 50.7395 24.0826 50.2042C28.7568 47.3129 33.892 45.244 39.2651 44.0871L49.1847 54.0068C42.5848 54.0741 36.1238 55.9106 30.4752 59.3248C30.0101 59.6163 29.6077 59.9976 29.2915 60.4464C28.9754 60.8951 28.7518 61.4023 28.6338 61.9384C28.5158 62.4745 28.5058 63.0288 28.6043 63.5688C28.7028 64.1088 28.908 64.6238 29.2077 65.0837L29.4832 65.5246C30.0896 66.4207 31.0192 67.0474 32.0773 67.2734C33.1354 67.4995 34.2399 67.3072 35.1595 66.737C38.8679 64.534 43.0336 63.2143 47.334 62.8798C51.6344 62.5453 55.9541 63.2051 59.9585 64.8081L79.908 84.7301L83.7932 80.8449L12.1515 9.20312L8.26627 13.0883Z" fill="black"/>
</svg>
