<svg width="321" height="264" viewBox="0 0 321 264" fill="none" xmlns="http://www.w3.org/2000/svg">
<g filter="url(#filter0_d_72_2623)">
<path d="M127.633 100.394L30.875 109.159C30.875 109.159 31.3975 115.341 33.3925 116.759C35.2925 118.114 93.4325 117.395 151.477 117.606C209.546 117.818 267.116 118.792 268.446 118.284C271.106 117.268 271.106 108.841 271.106 108.841L127.633 100.394Z" fill="#8A1E0C"/>
<path d="M157.89 52.2488L22.9663 49.2C22.9663 49.2 25.9113 55.0223 29.7826 56.9489C35.3638 59.7224 69.4213 65.4177 152.879 65.6929C236.336 65.9681 266.546 61.882 273.838 59.2355C280.036 56.9701 286.829 44.2246 286.829 44.2246L157.89 52.2488Z" fill="#8A1E0C"/>
<path d="M71.4399 71.9174V58.9391L93.2662 60.1247V71.7481L71.4399 71.9174Z" fill="#8A1E0C"/>
<path d="M215.603 60.5481V73.2724L238.854 72.4467V59.4471L215.603 60.5481Z" fill="#8A1E0C"/>
<path d="M23.0137 44.2034C23.0137 44.2034 16.1024 40.9641 8.28867 29.2137C2.84992 21.0414 1.92367 13.4195 4.15617 12.2762C6.38867 11.133 27.1699 22.5658 65.5499 27.6682C93.1474 31.3309 123.951 33.5751 152.902 33.808C183.73 34.0621 214.011 32.5165 242.654 27.6682C281.342 21.1049 295.094 13.9912 298.917 15.1344C302.765 16.2777 297.754 26.8213 294.975 32.0931C293.075 35.6712 284.881 48.9459 278.777 49.8987C274.384 50.5973 65.5262 49.0518 65.5262 49.0518L23.0137 44.2034Z" fill="#474C4F"/>
<path d="M139.056 55.3187V101.77L164.635 98.6364V55.3187H139.056Z" fill="#EB2901"/>
<path d="M215.579 69.2074H238.854V229.246L215.27 232.04L215.579 69.2074Z" fill="#EB2901"/>
<path d="M71.4399 69.0592L71.0361 231.511L93.2661 229.542V69.2074L71.4399 69.0592Z" fill="#EB2901"/>
<path d="M270.299 92.1789C269.064 90.6545 265.145 90.8662 265.145 90.8662C265.145 90.8662 260.68 90.8239 252.985 90.7392C253.009 86.9494 252.89 82.0375 252.154 81.2542C250.919 79.9415 203.609 80.3861 201.899 81.6988C200.925 82.4398 200.735 86.7165 200.759 90.2522C171.499 89.9982 136.729 89.7018 106.376 89.5324C106.376 85.8696 106.258 81.4447 105.545 80.8096C104.31 79.7086 60.4439 79.0523 58.7339 80.1532C57.5226 80.9366 57.2851 86.3143 57.2614 89.3842C42.4651 89.4053 32.9414 89.5112 32.2526 89.7653C28.8089 91.0779 30.7801 109.222 30.7801 109.222L271.011 110.747C271.035 110.768 271.534 93.7244 270.299 92.1789Z" fill="#EB2901"/>
<path d="M16.3876 32.6012C15.2238 33.9139 15.7701 36.9626 18.6438 42.7002C19.7838 44.9656 23.0851 50.1527 24.2963 51.4442C24.2963 51.4442 56.1688 58.6426 152.309 58.1133C248.449 57.584 281.723 52.2064 281.723 52.2064C281.723 52.2064 291.46 40.0325 289.679 39.6303C288.658 39.3974 237.88 48.9671 151.715 48.1837C65.5501 47.4003 16.3876 32.6012 16.3876 32.6012Z" fill="#EB2901"/>
<path d="M64.4101 225.011C63.6264 225.71 62.8426 247.496 64.1964 248.491C65.5264 249.486 97.7551 249.719 98.8714 248.724C99.9876 247.729 99.7738 226.769 99.1088 225.562C98.4438 224.355 65.5264 224.016 64.4101 225.011Z" fill="#474C4F"/>
<path d="M209.237 227.594C208.05 229.436 208.05 249.486 209.166 250.883C210.282 252.281 243.817 251.878 244.72 250.883C245.622 249.888 245.385 228.208 244.72 227.404C244.055 226.599 210.14 226.218 209.237 227.594Z" fill="#474C4F"/>
</g>
<defs>
<filter id="filter0_d_72_2623" x="0.426611" y="0.596411" width="320.49" height="262.79" filterUnits="userSpaceOnUse" color-interpolation-filters="sRGB">
<feFlood flood-opacity="0" result="BackgroundImageFix"/>
<feColorMatrix in="SourceAlpha" type="matrix" values="0 0 0 0 0 0 0 0 0 0 0 0 0 0 0 0 0 0 127 0" result="hardAlpha"/>
<feOffset dx="9"/>
<feGaussianBlur stdDeviation="5.8"/>
<feComposite in2="hardAlpha" operator="out"/>
<feColorMatrix type="matrix" values="0 0 0 0 0 0 0 0 0 0 0 0 0 0 0 0 0 0 0.25 0"/>
<feBlend mode="normal" in2="BackgroundImageFix" result="effect1_dropShadow_72_2623"/>
<feBlend mode="normal" in="SourceGraphic" in2="effect1_dropShadow_72_2623" result="shape"/>
</filter>
</defs>
</svg>
