<svg width="126" height="138" viewBox="0 0 126 138" fill="none" xmlns="http://www.w3.org/2000/svg">
<path d="M31.75 47.125L44.25 34.625L31.75 22.125L19.25 34.625L31.75 47.125ZM91.125 37.75C93.7292 37.75 95.9437 36.8396 97.7687 35.0188C99.5938 33.1979 100.504 30.9833 100.5 28.375C100.496 25.7667 99.5854 23.5542 97.7687 21.7375C95.9521 19.9208 93.7375 19.0083 91.125 19C88.5125 18.9917 86.3 19.9042 84.4875 21.7375C82.675 23.5708 81.7625 25.7833 81.75 28.375C81.7375 30.9667 82.65 33.1813 84.4875 35.0188C86.325 36.8563 88.5375 37.7667 91.125 37.75ZM19.25 137.75V124.625C19.25 120.979 20.2667 117.594 22.3 114.469C24.3333 111.344 27.0146 109 30.3438 107.438C35.4479 105.042 40.7604 103.246 46.2812 102.05C51.8021 100.854 57.375 100.254 63 100.25C68.625 100.246 74.1979 100.846 79.7188 102.05C85.2396 103.254 90.5521 105.05 95.6562 107.438C98.9896 109 101.673 111.344 103.706 114.469C105.74 117.594 106.754 120.979 106.75 124.625V137.75H19.25ZM63 94C56.9583 94 51.8021 91.8646 47.5312 87.5938C43.2604 83.3229 41.125 78.1667 41.125 72.125C41.125 66.0833 43.2604 60.9271 47.5312 56.6562C51.8021 52.3854 56.9583 50.25 63 50.25C69.0417 50.25 74.1979 52.3854 78.4688 56.6562C82.7396 60.9271 84.875 66.0833 84.875 72.125C84.875 78.1667 82.7396 83.3229 78.4688 87.5938C74.1979 91.8646 69.0417 94 63 94ZM33.1562 81.5H0.5V0.25H125.5V81.5H92.8438C93.4688 79.4167 93.8854 77.3333 94.0938 75.25C94.3021 73.1667 94.3021 71.0833 94.0938 69C93.2604 61.0833 89.9021 54.4167 84.0188 49C78.1354 43.5833 71.1292 40.875 63 40.875C54.8708 40.875 47.8646 43.5833 41.9813 49C36.0979 54.4167 32.7396 61.0833 31.9062 69C31.6979 71.0833 31.6979 73.1667 31.9062 75.25C32.1146 77.3333 32.5312 79.4167 33.1562 81.5Z" fill="black"/>
</svg>
