<svg width="317" height="353" viewBox="0 0 317 353" fill="none" xmlns="http://www.w3.org/2000/svg">
<g filter="url(#filter0_d_72_2020)">
<path fill-rule="evenodd" clip-rule="evenodd" d="M274.179 294.541C274.034 294.541 273.89 294.547 273.747 294.559L275.739 294.384C275.883 294.372 276.027 294.366 276.172 294.366L274.179 294.541Z" fill="#F04141"/>
<path fill-rule="evenodd" clip-rule="evenodd" d="M273.747 294.559C272.698 294.646 271.711 295.051 270.96 295.709C270.106 296.457 269.626 297.471 269.626 298.529V301.951L271.619 301.777V298.355C271.619 297.297 272.098 296.282 272.952 295.535C273.703 294.876 274.69 294.472 275.739 294.384L273.747 294.559Z" fill="#F04141"/>
<path fill-rule="evenodd" clip-rule="evenodd" d="M269.626 301.951H245.579L247.571 301.776H271.619L269.626 301.951Z" fill="#F04141"/>
<path fill-rule="evenodd" clip-rule="evenodd" d="M245.579 301.951V298.529C245.579 297.471 245.099 296.457 244.245 295.709C243.391 294.961 242.233 294.541 241.026 294.541L243.018 294.366C244.226 294.366 245.384 294.787 246.238 295.534C247.092 296.282 247.571 297.297 247.571 298.355V301.776L245.579 301.951Z" fill="#F04141"/>
<path fill-rule="evenodd" clip-rule="evenodd" d="M241.026 294.541C240.881 294.541 240.737 294.547 240.594 294.559L242.586 294.384C242.729 294.372 242.873 294.366 243.018 294.366L241.026 294.541Z" fill="#F04141"/>
<path fill-rule="evenodd" clip-rule="evenodd" d="M240.594 294.559C239.545 294.646 238.558 295.051 237.806 295.709C236.953 296.457 236.473 297.471 236.473 298.529V329.599C236.473 330.657 236.953 331.671 237.806 332.419C238.66 333.167 239.818 333.588 241.026 333.588L243.018 333.413C241.811 333.413 240.653 332.993 239.799 332.245C238.945 331.497 238.465 330.483 238.465 329.425V298.355C238.465 297.297 238.945 296.282 239.799 295.535C240.55 294.876 241.537 294.472 242.586 294.384L240.594 294.559Z" fill="#F04141"/>
<path fill-rule="evenodd" clip-rule="evenodd" d="M241.026 333.587C241.171 333.587 241.315 333.581 241.458 333.569L243.45 333.395C243.307 333.407 243.163 333.413 243.018 333.413L241.026 333.587Z" fill="#F04141"/>
<path fill-rule="evenodd" clip-rule="evenodd" d="M241.458 333.569C242.507 333.482 243.494 333.077 244.245 332.419C245.099 331.671 245.579 330.657 245.579 329.599V309.927L247.571 309.753V329.425C247.571 330.483 247.092 331.497 246.238 332.245C245.486 332.903 244.499 333.308 243.45 333.395L241.458 333.569Z" fill="#F04141"/>
<path fill-rule="evenodd" clip-rule="evenodd" d="M245.579 309.927H269.626L271.619 309.753H247.571L245.579 309.927Z" fill="#F04141"/>
<path fill-rule="evenodd" clip-rule="evenodd" d="M269.626 309.927V329.599C269.626 330.657 270.106 331.671 270.96 332.419C271.814 333.167 272.972 333.587 274.179 333.587L276.172 333.413C274.964 333.413 273.806 332.993 272.952 332.245C272.098 331.497 271.619 330.483 271.619 329.425V309.753L269.626 309.927Z" fill="#F04141"/>
<path fill-rule="evenodd" clip-rule="evenodd" d="M274.179 333.587C274.324 333.587 274.468 333.581 274.611 333.569L276.604 333.395C276.461 333.407 276.316 333.413 276.172 333.413L274.179 333.587Z" fill="#F04141"/>
<path fill-rule="evenodd" clip-rule="evenodd" d="M274.611 333.569C275.66 333.482 276.647 333.077 277.399 332.419C278.252 331.671 278.732 330.657 278.732 329.599V298.529C278.732 297.471 278.252 296.457 277.399 295.709C276.545 294.961 275.387 294.541 274.179 294.541L276.172 294.366C277.379 294.366 278.537 294.787 279.391 295.534C280.245 296.282 280.725 297.297 280.725 298.355V329.425C280.725 330.483 280.245 331.497 279.391 332.245C278.64 332.903 277.653 333.308 276.604 333.395L274.611 333.569Z" fill="#F04141"/>
<path d="M274.179 294.541C272.972 294.541 271.814 294.961 270.96 295.709C270.106 296.457 269.626 297.471 269.626 298.529V301.951H245.579V298.529C245.579 297.471 245.099 296.457 244.245 295.709C243.391 294.961 242.233 294.541 241.026 294.541C239.818 294.541 238.66 294.961 237.806 295.709C236.953 296.457 236.473 297.471 236.473 298.529V329.599C236.473 330.657 236.953 331.671 237.806 332.419C238.66 333.167 239.818 333.587 241.026 333.587C242.233 333.587 243.391 333.167 244.245 332.419C245.099 331.671 245.579 330.657 245.579 329.599V309.927H269.626V329.599C269.626 330.657 270.106 331.671 270.96 332.419C271.814 333.167 272.972 333.587 274.179 333.587C275.387 333.587 276.545 333.167 277.399 332.419C278.253 331.671 278.732 330.657 278.732 329.599V298.529C278.732 297.471 278.253 296.457 277.399 295.709C276.545 294.961 275.387 294.541 274.179 294.541Z" fill="#C12140"/>
<path fill-rule="evenodd" clip-rule="evenodd" d="M51.9741 294.541C51.8292 294.541 51.685 294.547 51.542 294.559L53.5344 294.384C53.6774 294.372 53.8216 294.366 53.9665 294.366L51.9741 294.541Z" fill="#F04141"/>
<path fill-rule="evenodd" clip-rule="evenodd" d="M51.5419 294.559C50.493 294.646 49.506 295.051 48.7546 295.709C47.9008 296.457 47.4211 297.471 47.4211 298.529V301.951L49.4135 301.777V298.355C49.4135 297.297 49.8932 296.282 50.747 295.535C51.4984 294.876 52.4854 294.472 53.5343 294.384L51.5419 294.559Z" fill="#F04141"/>
<path fill-rule="evenodd" clip-rule="evenodd" d="M47.4213 301.951H23.3738L25.3662 301.776H49.4137L47.4213 301.951Z" fill="#F04141"/>
<path fill-rule="evenodd" clip-rule="evenodd" d="M23.3737 301.951V298.529C23.3737 297.471 22.8941 296.457 22.0402 295.709C21.1864 294.961 20.0283 294.541 18.8208 294.541L20.8132 294.366C22.0207 294.366 23.1788 294.787 24.0326 295.534C24.8865 296.282 25.3661 297.297 25.3661 298.355V301.776L23.3737 301.951Z" fill="#F04141"/>
<path fill-rule="evenodd" clip-rule="evenodd" d="M18.8208 294.541C18.6759 294.541 18.5317 294.547 18.3887 294.559L20.3811 294.384C20.5241 294.372 20.6683 294.366 20.8132 294.366L18.8208 294.541Z" fill="#F04141"/>
<path fill-rule="evenodd" clip-rule="evenodd" d="M18.3886 294.559C17.3397 294.646 16.3527 295.051 15.6014 295.709C14.7475 296.457 14.2678 297.471 14.2678 298.529V328.602C14.2678 329.66 14.7475 330.674 15.6014 331.422C16.4552 332.17 17.6133 332.59 18.8208 332.59L20.8132 332.416C19.6057 332.416 18.4476 331.996 17.5938 331.248C16.7399 330.5 16.2602 329.486 16.2602 328.428V298.355C16.2602 297.297 16.7399 296.282 17.5938 295.535C18.3451 294.876 19.3321 294.472 20.381 294.384L18.3886 294.559Z" fill="#F04141"/>
<path fill-rule="evenodd" clip-rule="evenodd" d="M18.8208 332.59C18.9657 332.59 19.1099 332.584 19.2529 332.572L21.2453 332.398C21.1023 332.41 20.9581 332.416 20.8132 332.416L18.8208 332.59Z" fill="#F04141"/>
<path fill-rule="evenodd" clip-rule="evenodd" d="M19.2529 332.572C20.3019 332.485 21.2888 332.08 22.0402 331.422C22.8941 330.674 23.3737 329.66 23.3737 328.602V309.927L25.3661 309.753V328.428C25.3661 329.486 24.8865 330.5 24.0326 331.248C23.2812 331.906 22.2943 332.31 21.2453 332.398L19.2529 332.572Z" fill="#F04141"/>
<path fill-rule="evenodd" clip-rule="evenodd" d="M23.3738 309.927H47.4213L49.4137 309.753H25.3662L23.3738 309.927Z" fill="#F04141"/>
<path fill-rule="evenodd" clip-rule="evenodd" d="M47.4211 309.927V328.602C47.4211 329.66 47.9008 330.674 48.7546 331.422C49.6084 332.17 50.7665 332.59 51.974 332.59L53.9664 332.416C52.7589 332.416 51.6008 331.996 50.747 331.248C49.8932 330.5 49.4135 329.486 49.4135 328.428V309.753L47.4211 309.927Z" fill="#F04141"/>
<path fill-rule="evenodd" clip-rule="evenodd" d="M51.9741 332.59C52.119 332.59 52.2632 332.584 52.4062 332.572L54.3986 332.398C54.2556 332.41 54.1114 332.416 53.9665 332.416L51.9741 332.59Z" fill="#F04141"/>
<path fill-rule="evenodd" clip-rule="evenodd" d="M52.4062 332.572C53.4552 332.485 54.4422 332.08 55.1935 331.422C56.0474 330.674 56.5271 329.66 56.5271 328.602V298.529C56.5271 297.471 56.0474 296.457 55.1935 295.709C54.3397 294.961 53.1816 294.541 51.9741 294.541L53.9665 294.366C55.174 294.366 56.3321 294.787 57.1859 295.534C58.0398 296.282 58.5195 297.297 58.5195 298.355V328.428C58.5195 329.486 58.0398 330.5 57.1859 331.248C56.4346 331.906 55.4476 332.31 54.3986 332.398L52.4062 332.572Z" fill="#F04141"/>
<path d="M51.9741 294.541C50.7666 294.541 49.6085 294.961 48.7547 295.709C47.9009 296.457 47.4212 297.471 47.4212 298.529V301.951H23.3737V298.529C23.3737 297.471 22.894 296.457 22.0402 295.709C21.1863 294.961 20.0283 294.541 18.8208 294.541C17.6133 294.541 16.4552 294.961 15.6014 295.709C14.7475 296.457 14.2678 297.471 14.2678 298.529V328.602C14.2678 329.66 14.7475 330.674 15.6014 331.422C16.4552 332.17 17.6133 332.59 18.8208 332.59C20.0283 332.59 21.1863 332.17 22.0402 331.422C22.894 330.674 23.3737 329.66 23.3737 328.602V309.927H47.4212V328.602C47.4212 329.66 47.9009 330.674 48.7547 331.422C49.6085 332.17 50.7666 332.59 51.9741 332.59C53.1816 332.59 54.3397 332.17 55.1935 331.422C56.0474 330.674 56.5271 329.66 56.5271 328.602V298.529C56.5271 297.471 56.0474 296.457 55.1935 295.709C54.3397 294.961 53.1816 294.541 51.9741 294.541Z" fill="#C12140"/>
<path fill-rule="evenodd" clip-rule="evenodd" d="M72.855 275.292V324.615H220.145L230.145 314.615H82.855V265.292L72.855 275.292Z" fill="#ED3434"/>
<path fill-rule="evenodd" clip-rule="evenodd" d="M220.145 324.615V275.292H72.855L82.855 265.292H230.145V314.615L220.145 324.615Z" fill="#ED3434"/>
<path d="M220.145 275.292H72.855V324.615H220.145V275.292Z" fill="#F74F73"/>
<path fill-rule="evenodd" clip-rule="evenodd" d="M72.855 215.287V275.292H220.145L230.145 265.292H82.855V205.287L72.855 215.287Z" fill="#F73030"/>
<path fill-rule="evenodd" clip-rule="evenodd" d="M220.145 275.292V215.287H72.855L82.855 205.287H230.145V265.292L220.145 275.292Z" fill="#F73030"/>
<path d="M220.145 215.287H72.855V275.292H220.145V215.287Z" fill="#F74F73"/>
<path fill-rule="evenodd" clip-rule="evenodd" d="M72.855 121.33V184.537H220.145L230.145 174.537H82.855V111.33L72.855 121.33Z" fill="#EE1313"/>
<path fill-rule="evenodd" clip-rule="evenodd" d="M220.145 184.537V121.33H72.855L82.855 111.33H230.145V174.537L220.145 184.537Z" fill="#EE1313"/>
<path d="M220.145 121.33H72.855V184.537H220.145V121.33Z" fill="#F74F73"/>
<path fill-rule="evenodd" clip-rule="evenodd" d="M72.855 121.33V132.025H220.145L230.145 122.025H82.855V111.33L72.855 121.33Z" fill="#D0021B"/>
<path fill-rule="evenodd" clip-rule="evenodd" d="M220.145 132.025V121.33H72.855L82.855 111.33H230.145V122.025L220.145 132.025Z" fill="#D0021B"/>
<path d="M220.145 121.33H72.855V132.025H220.145V121.33Z" fill="#C12140"/>
<path d="M103.838 288.845C105.128 288.845 106.405 289.068 107.597 289.5C108.788 289.933 109.871 290.566 110.783 291.365C111.695 292.164 112.418 293.113 112.912 294.157C113.406 295.2 113.66 296.319 113.66 297.449V307.212C113.66 307.477 113.54 307.73 113.326 307.917C113.113 308.104 112.823 308.209 112.521 308.209H95.1565C94.8547 308.209 94.5652 308.104 94.3517 307.917C94.1382 307.73 94.0183 307.477 94.0183 307.212V297.452C94.0183 295.17 95.0531 292.982 96.8951 291.368C98.737 289.755 101.235 288.848 103.84 288.848L103.838 288.845Z" fill="#373D4C"/>
<path fill-rule="evenodd" clip-rule="evenodd" d="M114.581 79.5332C114.554 79.5602 114.527 79.5874 114.5 79.6146L124.5 69.6146C124.527 69.5874 124.554 69.5602 124.581 69.5332L114.581 79.5332Z" fill="#090909" fill-opacity="0.6"/>
<path fill-rule="evenodd" clip-rule="evenodd" d="M114.5 79.6146C114.457 79.6577 114.414 79.7007 114.372 79.7436L124.372 69.7436C124.414 69.7007 124.457 69.6577 124.5 69.6146L114.5 79.6146Z" fill="#090909" fill-opacity="0.6"/>
<path fill-rule="evenodd" clip-rule="evenodd" d="M114.372 79.7437C112.274 81.849 110.051 83.8554 107.711 85.7545L117.711 75.7545C120.051 73.8554 122.274 71.849 124.372 69.7437L114.372 79.7437Z" fill="#090909" fill-opacity="0.6"/>
<path fill-rule="evenodd" clip-rule="evenodd" d="M107.711 85.7545C92.7071 97.9405 72.047 103.602 51.9469 100.248C50.5025 100.006 49.049 99.7173 47.6011 99.3723C46.924 99.208 46.2094 99.2027 45.5293 99.3572C44.8492 99.5116 44.2275 99.8203 43.7268 100.252L53.7268 90.2521C54.2275 89.8203 54.8492 89.5116 55.5293 89.3572C56.2094 89.2027 56.924 89.208 57.6011 89.3723C59.049 89.7173 60.5025 90.0064 61.9469 90.2477C82.047 93.6018 102.707 87.9405 117.711 75.7545L107.711 85.7545Z" fill="#090909" fill-opacity="0.6"/>
<path fill-rule="evenodd" clip-rule="evenodd" d="M43.7267 100.252C43.6566 100.313 43.5892 100.375 43.5247 100.44L53.5247 90.4397C53.5892 90.3752 53.6566 90.3126 53.7267 90.2522L43.7267 100.252Z" fill="#090909" fill-opacity="0.6"/>
<path fill-rule="evenodd" clip-rule="evenodd" d="M43.5248 100.44C43.1282 100.836 42.838 101.307 42.6773 101.817C42.4904 102.41 42.4852 103.036 42.6623 103.632C44.8307 110.673 51.1444 121.33 69.4985 121.33H223.502C233.412 121.33 239.812 118.223 243.944 114.256L253.944 104.256C249.812 108.223 243.412 111.33 233.502 111.33H79.4985C61.1444 111.33 54.8307 100.673 52.6623 93.6318C52.4852 93.0361 52.4904 92.4102 52.6773 91.8169C52.838 91.3067 53.1282 90.8361 53.5248 90.4397L43.5248 100.44Z" fill="#090909" fill-opacity="0.6"/>
<path fill-rule="evenodd" clip-rule="evenodd" d="M243.944 114.256C247.465 110.876 249.34 106.873 250.338 103.634C250.516 103.041 250.513 102.418 250.33 101.827C250.146 101.236 249.789 100.697 249.294 100.264C248.798 99.832 248.182 99.5211 247.506 99.3628C246.83 99.2045 246.119 99.2044 245.443 99.3624C243.641 99.7922 241.835 100.134 240.046 100.408C230.447 101.807 220.612 101.279 211.28 98.8648C201.949 96.4504 193.364 92.2121 186.174 86.4695C183.436 84.3048 180.851 81.9957 178.434 79.5548C177.096 78.2058 175.442 77.1247 173.584 76.385C171.727 75.6452 169.709 75.2641 167.669 75.2675H125.329C123.274 75.2697 121.243 75.659 119.374 76.4091C117.543 77.1441 115.91 78.2088 114.581 79.5332L124.581 69.5332C125.91 68.2088 127.543 67.1441 129.374 66.4091C131.243 65.659 133.274 65.2697 135.329 65.2675H177.669C179.709 65.2641 181.727 65.6452 183.584 66.385C185.442 67.1247 187.096 68.2058 188.434 69.5548C190.851 71.9957 193.436 74.3048 196.174 76.4695C203.364 82.2121 211.949 86.4504 221.28 88.8648C230.612 91.2793 240.447 91.8071 250.046 90.4084C251.835 90.1342 253.641 89.7922 255.443 89.3624C256.119 89.2044 256.83 89.2045 257.506 89.3628C258.182 89.5211 258.798 89.832 259.294 90.2644C259.789 90.6969 260.146 91.2357 260.33 91.827C260.513 92.4182 260.516 93.0413 260.338 93.6339C259.34 96.8728 257.465 100.876 253.944 104.256L243.944 114.256Z" fill="#090909" fill-opacity="0.6"/>
<path d="M240.046 100.408C230.447 101.807 220.612 101.279 211.28 98.8648C201.949 96.4504 193.364 92.2121 186.174 86.4695C183.436 84.3048 180.851 81.9957 178.434 79.5548C177.096 78.2058 175.442 77.1247 173.584 76.385C171.727 75.6452 169.709 75.2641 167.669 75.2675H125.329C123.274 75.2697 121.243 75.659 119.374 76.4091C117.506 77.1591 115.843 78.2524 114.5 79.6147C112.365 81.767 110.099 83.8167 107.711 85.7546C92.7071 97.9406 72.047 103.602 51.9469 100.248C50.5025 100.006 49.049 99.7174 47.6011 99.3724C46.924 99.2081 46.2094 99.2028 45.5293 99.3573C44.8492 99.5117 44.2275 99.8204 43.7268 100.252C43.2261 100.684 42.8641 101.224 42.6773 101.817C42.4904 102.41 42.4852 103.036 42.6623 103.632C44.8307 110.673 51.1444 121.33 69.4985 121.33H223.502C241.853 121.33 248.168 110.675 250.338 103.634C250.516 103.041 250.513 102.418 250.33 101.827C250.146 101.236 249.789 100.697 249.294 100.264C248.798 99.832 248.182 99.5211 247.506 99.3628C246.83 99.2045 246.119 99.2044 245.443 99.3624C243.641 99.7922 241.835 100.134 240.046 100.408Z" fill="#4C5768"/>
<path fill-rule="evenodd" clip-rule="evenodd" d="M248.732 150.545C248.587 150.545 248.443 150.551 248.3 150.563L250.292 150.389C250.435 150.377 250.58 150.371 250.724 150.371L248.732 150.545Z" fill="#F04141"/>
<path fill-rule="evenodd" clip-rule="evenodd" d="M248.3 150.563C247.251 150.651 246.264 151.055 245.512 151.714C244.658 152.462 244.179 153.476 244.179 154.534V158.497L246.172 158.323V154.359C246.172 153.302 246.651 152.287 247.505 151.539C248.256 150.881 249.243 150.477 250.292 150.389L248.3 150.563Z" fill="#F04141"/>
<path fill-rule="evenodd" clip-rule="evenodd" d="M244.179 158.497H183.892L185.884 158.323H246.171L244.179 158.497Z" fill="#F04141"/>
<path fill-rule="evenodd" clip-rule="evenodd" d="M183.892 158.497V154.534C183.892 153.476 183.412 152.461 182.558 151.714C181.705 150.966 180.547 150.545 179.339 150.545L181.332 150.371C182.54 150.371 183.698 150.791 184.551 151.539C185.405 152.287 185.885 153.302 185.885 154.359V158.323L183.892 158.497Z" fill="#F04141"/>
<path fill-rule="evenodd" clip-rule="evenodd" d="M179.339 150.545C179.194 150.545 179.05 150.551 178.907 150.563L180.899 150.389C181.042 150.377 181.187 150.371 181.331 150.371L179.339 150.545Z" fill="#F04141"/>
<path fill-rule="evenodd" clip-rule="evenodd" d="M178.907 150.563C177.858 150.651 176.871 151.055 176.12 151.714C175.266 152.462 174.786 153.476 174.786 154.534V180.548L176.779 180.374V154.359C176.779 153.302 177.259 152.287 178.113 151.539C178.863 150.881 179.851 150.477 180.9 150.389L178.907 150.563Z" fill="#F04141"/>
<path fill-rule="evenodd" clip-rule="evenodd" d="M174.786 180.548H118.216L120.208 180.374H176.778L174.786 180.548Z" fill="#F04141"/>
<path fill-rule="evenodd" clip-rule="evenodd" d="M118.216 180.548V154.534C118.216 153.476 117.736 152.461 116.882 151.714C116.029 150.966 114.871 150.545 113.663 150.545L115.655 150.371C116.863 150.371 118.021 150.791 118.875 151.539C119.729 152.287 120.208 153.302 120.208 154.359V180.374L118.216 180.548Z" fill="#F04141"/>
<path fill-rule="evenodd" clip-rule="evenodd" d="M113.663 150.545C113.518 150.545 113.374 150.551 113.231 150.563L115.223 150.389C115.366 150.377 115.511 150.371 115.655 150.371L113.663 150.545Z" fill="#F04141"/>
<path fill-rule="evenodd" clip-rule="evenodd" d="M113.231 150.563C112.182 150.651 111.195 151.055 110.444 151.714C109.59 152.462 109.11 153.476 109.11 154.534V158.497L111.103 158.323V154.359C111.103 153.302 111.582 152.287 112.436 151.539C113.187 150.881 114.174 150.477 115.223 150.389L113.231 150.563Z" fill="#F04141"/>
<path fill-rule="evenodd" clip-rule="evenodd" d="M109.11 158.497H48.8201L50.8125 158.323H111.102L109.11 158.497Z" fill="#F04141"/>
<path fill-rule="evenodd" clip-rule="evenodd" d="M48.82 158.497V154.534C48.82 153.476 48.3403 152.461 47.4865 151.714C46.6327 150.966 45.4746 150.545 44.2671 150.545L46.2595 150.371C47.467 150.371 48.6251 150.791 49.4789 151.539C50.3327 152.287 50.8124 153.302 50.8124 154.359V158.323L48.82 158.497Z" fill="#F04141"/>
<path fill-rule="evenodd" clip-rule="evenodd" d="M44.2671 150.545C44.1222 150.545 43.978 150.551 43.835 150.563L45.8274 150.389C45.9704 150.377 46.1146 150.371 46.2595 150.371L44.2671 150.545Z" fill="#F04141"/>
<path fill-rule="evenodd" clip-rule="evenodd" d="M43.8349 150.563C42.786 150.651 41.799 151.055 41.0476 151.714C40.1938 152.462 39.7141 153.476 39.7141 154.534V178.024C39.718 180.808 40.9823 183.477 43.2297 185.446C45.477 187.414 48.5239 188.521 51.702 188.524L53.6944 188.35C50.5163 188.347 47.4694 187.24 45.2221 185.271C42.9747 183.303 41.7104 180.634 41.7065 177.85V154.359C41.7065 153.302 42.1862 152.287 43.04 151.539C43.7914 150.881 44.7784 150.477 45.8273 150.389L43.8349 150.563Z" fill="#F04141"/>
<path fill-rule="evenodd" clip-rule="evenodd" d="M51.7019 188.524H241.298L243.29 188.35H53.6943L51.7019 188.524Z" fill="#F04141"/>
<path fill-rule="evenodd" clip-rule="evenodd" d="M241.298 188.524C241.679 188.524 242.059 188.508 242.435 188.476L244.428 188.302C244.051 188.333 243.672 188.35 243.29 188.35L241.298 188.524Z" fill="#F04141"/>
<path fill-rule="evenodd" clip-rule="evenodd" d="M242.435 188.476C245.196 188.243 247.792 187.178 249.77 185.445C252.017 183.477 253.281 180.808 253.284 178.024V154.534C253.284 153.476 252.805 152.461 251.951 151.714C251.097 150.966 249.939 150.545 248.732 150.545L250.724 150.371C251.931 150.371 253.089 150.791 253.943 151.539C254.797 152.287 255.276 153.302 255.276 154.359V177.85C255.273 180.634 254.009 183.303 251.762 185.271C249.784 187.003 247.188 188.069 244.428 188.302L242.435 188.476Z" fill="#F04141"/>
<path fill-rule="evenodd" clip-rule="evenodd" d="M48.8201 166.473H109.107L111.099 166.299H50.8125L48.8201 166.473Z" fill="#F04141"/>
<path fill-rule="evenodd" clip-rule="evenodd" d="M109.107 166.473V180.548L111.099 180.374V166.299L109.107 166.473Z" fill="#F04141"/>
<path fill-rule="evenodd" clip-rule="evenodd" d="M109.107 180.548H51.7019L53.6943 180.374H111.099L109.107 180.548Z" fill="#F04141"/>
<path fill-rule="evenodd" clip-rule="evenodd" d="M51.7021 180.548C50.9382 180.547 50.2059 180.281 49.6656 179.808C49.1253 179.335 48.8213 178.693 48.8201 178.024V166.473L50.8125 166.299V177.85C50.8137 178.519 51.1177 179.161 51.658 179.634C52.1983 180.107 52.9306 180.373 53.6945 180.374L51.7021 180.548Z" fill="#F04141"/>
<path fill-rule="evenodd" clip-rule="evenodd" d="M241.295 180.548H183.892L185.884 180.374H243.287L241.295 180.548Z" fill="#F04141"/>
<path fill-rule="evenodd" clip-rule="evenodd" d="M183.892 180.548V166.473L185.884 166.299V180.374L183.892 180.548Z" fill="#F04141"/>
<path fill-rule="evenodd" clip-rule="evenodd" d="M183.892 166.473H244.179L246.171 166.299H185.884L183.892 166.473Z" fill="#F04141"/>
<path fill-rule="evenodd" clip-rule="evenodd" d="M244.179 166.473V178.024C244.177 178.693 243.874 179.335 243.333 179.808C242.88 180.205 242.291 180.456 241.661 180.527L243.654 180.353C244.283 180.282 244.872 180.031 245.326 179.633C245.867 179.16 246.17 178.519 246.172 177.85V166.299L244.179 166.473Z" fill="#F04141"/>
<path fill-rule="evenodd" clip-rule="evenodd" d="M241.661 180.527C241.541 180.541 241.42 180.548 241.298 180.548L243.29 180.374C243.413 180.373 243.534 180.366 243.654 180.353L241.661 180.527Z" fill="#F04141"/>
<path fill-rule="evenodd" clip-rule="evenodd" d="M241.298 180.548H241.295L243.288 180.374H243.291L241.298 180.548Z" fill="#F04141"/>
<path d="M248.732 150.545C247.524 150.545 246.366 150.966 245.512 151.714C244.658 152.461 244.179 153.476 244.179 154.534V158.497H183.892V154.534C183.892 153.476 183.412 152.461 182.558 151.714C181.705 150.966 180.547 150.545 179.339 150.545C178.132 150.545 176.973 150.966 176.12 151.714C175.266 152.461 174.786 153.476 174.786 154.534V180.548H118.216V154.534C118.216 153.476 117.736 152.461 116.882 151.714C116.029 150.966 114.871 150.545 113.663 150.545C112.456 150.545 111.297 150.966 110.444 151.714C109.59 152.461 109.11 153.476 109.11 154.534V158.497H48.82V154.534C48.82 153.476 48.3403 152.461 47.4865 151.714C46.6326 150.966 45.4746 150.545 44.2671 150.545C43.0595 150.545 41.9015 150.966 41.0476 151.714C40.1938 152.461 39.7141 153.476 39.7141 154.534V178.024C39.718 180.808 40.9823 183.477 43.2297 185.446C45.477 187.414 48.5239 188.521 51.702 188.524H241.298C244.476 188.521 247.522 187.414 249.77 185.446C252.017 183.477 253.281 180.808 253.284 178.024V154.534C253.284 153.476 252.805 152.461 251.951 151.714C251.097 150.966 249.939 150.545 248.732 150.545ZM48.82 178.024V166.473H109.107V180.548H51.702C50.9381 180.547 50.2058 180.281 49.6655 179.808C49.1253 179.335 48.8212 178.694 48.82 178.024ZM241.295 180.548H183.892V166.473H244.179V178.024C244.177 178.693 243.874 179.335 243.333 179.808C242.793 180.281 242.061 180.547 241.298 180.548H241.295Z" fill="#C12140"/>
<path fill-rule="evenodd" clip-rule="evenodd" d="M161.168 54.2193C161.2 54.1889 161.231 54.1581 161.262 54.1271L171.262 44.1271C171.231 44.1581 171.2 44.1889 171.168 44.2193L161.168 54.2193Z" fill="#DDBE69"/>
<path fill-rule="evenodd" clip-rule="evenodd" d="M161.262 54.1271C162.008 53.3818 162.488 52.4603 162.641 51.4766C162.801 50.452 162.598 49.4091 162.061 48.4883C161.524 47.5675 160.677 46.813 159.636 46.3263L157.359 45.2625C156.494 44.8567 155.789 44.2326 155.334 43.4712C154.879 42.7099 154.696 41.8464 154.808 40.9927C154.921 40.1391 155.323 39.3346 155.964 38.6838L165.964 28.6838C165.323 29.3346 164.921 30.1391 164.808 30.9927C164.696 31.8464 164.879 32.7099 165.334 33.4712C165.789 34.2326 166.494 34.8567 167.359 35.2625L169.636 36.3263C170.677 36.813 171.524 37.5675 172.061 38.4883C172.598 39.4091 172.801 40.452 172.641 41.4766C172.488 42.4603 172.008 43.3818 171.262 44.1271L161.262 54.1271Z" fill="#DDBE69"/>
<path fill-rule="evenodd" clip-rule="evenodd" d="M155.964 38.6838L165.964 28.6838L155.964 38.6838Z" fill="#DDBE69"/>
<path fill-rule="evenodd" clip-rule="evenodd" d="M155.964 38.6838C156.604 38.033 157.453 37.5658 158.401 37.3428L159.7 37.0437C160.464 36.8659 161.149 36.4961 161.673 35.9819L171.673 25.9819C171.149 26.4961 170.464 26.8659 169.7 27.0437L168.401 27.3428C167.453 27.5658 166.604 28.033 165.964 28.6838L155.964 38.6838Z" fill="#DDBE69"/>
<path fill-rule="evenodd" clip-rule="evenodd" d="M161.673 35.982C161.719 35.9373 161.763 35.8915 161.806 35.8446L171.806 25.8446C171.763 25.8915 171.719 25.9373 171.673 25.982L161.673 35.982Z" fill="#DDBE69"/>
<path fill-rule="evenodd" clip-rule="evenodd" d="M161.806 35.8446C162.344 35.2588 162.655 34.5377 162.693 33.7865C162.731 33.0352 162.495 32.2929 162.018 31.6675C161.541 31.0422 160.849 30.5665 160.042 30.3096L157.993 29.6565C157.05 29.3557 156.235 28.8081 155.659 28.0879C155.083 27.3677 154.774 26.5098 154.773 25.6304C154.773 24.8911 154.607 24.1589 154.284 23.4758C153.961 22.7927 153.488 22.172 152.891 21.6492C152.294 21.1263 151.586 20.7116 150.806 20.4286C150.026 20.1456 149.191 20 148.347 20H145.351C144.507 20 143.671 20.1456 142.891 20.4286C142.111 20.7116 141.403 21.1263 140.806 21.6492L150.806 11.6492C151.403 11.1263 152.111 10.7116 152.891 10.4286C153.671 10.1456 154.507 10 155.351 10H158.347C159.191 10 160.026 10.1456 160.806 10.4286C161.586 10.7116 162.294 11.1263 162.891 11.6492C163.488 12.172 163.961 12.7927 164.284 13.4758C164.607 14.1589 164.773 14.8911 164.773 15.6304C164.774 16.5098 165.083 17.3677 165.659 18.0879C166.235 18.8081 167.05 19.3557 167.993 19.6565L170.042 20.3096C170.849 20.5665 171.541 21.0422 172.018 21.6675C172.495 22.2929 172.731 23.0352 172.693 23.7865C172.655 24.5377 172.344 25.2588 171.806 25.8446L161.806 35.8446Z" fill="#DDBE69"/>
<path fill-rule="evenodd" clip-rule="evenodd" d="M140.806 21.6492C140.711 21.7328 140.618 21.819 140.529 21.9075L150.529 11.9075C150.618 11.819 150.711 11.7328 150.806 11.6492L140.806 21.6492Z" fill="#DDBE69"/>
<path fill-rule="evenodd" clip-rule="evenodd" d="M140.529 21.9075C140.062 22.3722 139.684 22.902 139.413 23.4758C139.09 24.1589 138.924 24.891 138.924 25.6304C138.924 26.5097 138.614 27.3676 138.038 28.0878C137.946 28.2031 137.848 28.3139 137.744 28.42L147.744 18.42C147.848 18.3139 147.946 18.2031 148.038 18.0878C148.614 17.3676 148.924 16.5097 148.924 15.6304C148.924 14.891 149.09 14.1589 149.413 13.4758C149.684 12.902 150.062 12.3722 150.529 11.9075L140.529 21.9075Z" fill="#DDBE69"/>
<path fill-rule="evenodd" clip-rule="evenodd" d="M137.744 28.42C137.198 28.977 136.496 29.4039 135.704 29.6566L133.655 30.3096C133.026 30.51 132.466 30.8435 132.024 31.2773L142.024 21.2773C142.466 20.8435 143.026 20.51 143.655 20.3096L145.704 19.6566C146.496 19.4039 147.198 18.977 147.744 18.42L137.744 28.42Z" fill="#DDBE69"/>
<path fill-rule="evenodd" clip-rule="evenodd" d="M132.024 31.2772C131.9 31.3996 131.784 31.5299 131.679 31.6675C131.202 32.2929 130.966 33.0352 131.004 33.7865C131.042 34.5377 131.353 35.2588 131.891 35.8446C132.429 36.4304 133.167 36.8505 133.997 37.0437L135.297 37.3428C136.244 37.5658 137.093 38.033 137.734 38.6838C138.374 39.3346 138.777 40.1391 138.889 40.9927C139.001 41.8464 138.818 42.7099 138.363 43.4712C138.19 43.7605 137.981 44.03 137.741 44.2752L147.741 34.2752C147.981 34.03 148.19 33.7605 148.363 33.4712C148.818 32.7099 149.001 31.8464 148.889 30.9927C148.777 30.1391 148.374 29.3346 147.734 28.6838C147.093 28.033 146.244 27.5658 145.297 27.3428L143.997 27.0437C143.167 26.8505 142.429 26.4304 141.891 25.8446C141.353 25.2588 141.042 24.5377 141.004 23.7865C140.966 23.0352 141.202 22.2929 141.679 21.6675C141.784 21.5299 141.9 21.3996 142.024 21.2772L132.024 31.2772Z" fill="#DDBE69"/>
<path fill-rule="evenodd" clip-rule="evenodd" d="M137.741 44.2753C137.349 44.6754 136.874 45.0109 136.338 45.2625L134.062 46.3263C133.457 46.6086 132.919 46.981 132.468 47.4236L142.468 37.4236C142.919 36.981 143.457 36.6086 144.062 36.3263L146.338 35.2625C146.874 35.0109 147.349 34.6754 147.741 34.2753L137.741 44.2753Z" fill="#DDBE69"/>
<path fill-rule="evenodd" clip-rule="evenodd" d="M132.468 47.4236C132.142 47.7441 131.862 48.1015 131.636 48.4883C131.099 49.4091 130.896 50.452 131.056 51.4766C131.216 52.5012 131.73 53.4584 132.529 54.2193C133.329 54.9802 134.375 55.5083 135.528 55.7326C136.492 55.9202 137.355 56.3904 137.973 57.0655C138.592 57.7405 138.929 58.5801 138.929 59.4456V62.1537C138.928 62.9302 138.687 63.6921 138.231 64.358C138.085 64.5711 137.919 64.7718 137.735 64.9582L147.735 54.9582C147.919 54.7718 148.085 54.5711 148.231 54.358C148.687 53.6921 148.928 52.9302 148.929 52.1537V49.4456C148.929 48.5801 148.592 47.7405 147.973 47.0655C147.355 46.3904 146.492 45.9202 145.528 45.7326C144.375 45.5083 143.329 44.9802 142.529 44.2193C141.73 43.4584 141.216 42.5012 141.056 41.4766C140.896 40.452 141.099 39.4091 141.636 38.4883C141.862 38.1015 142.142 37.7441 142.468 37.4236L132.468 47.4236Z" fill="#DDBE69"/>
<path fill-rule="evenodd" clip-rule="evenodd" d="M137.735 64.9581C137.344 65.3542 136.871 65.6858 136.339 65.9344L133.139 67.43C132.713 67.629 132.333 67.8924 132.016 68.2064L142.016 58.2064C142.333 57.8924 142.713 57.629 143.139 57.43L146.339 55.9344C146.871 55.6858 147.344 55.3542 147.735 54.9581L137.735 64.9581Z" fill="#DDBE69"/>
<path fill-rule="evenodd" clip-rule="evenodd" d="M132.016 68.2064C131.853 68.3682 131.706 68.5433 131.578 68.73C131.202 69.2792 131.003 69.9075 131.003 70.5479V77.7995H162.703L172.703 67.7995H141.003V60.5479C141.003 59.9075 141.202 59.2792 141.578 58.73C141.706 58.5433 141.853 58.3682 142.016 58.2064L132.016 68.2064Z" fill="#DDBE69"/>
<path fill-rule="evenodd" clip-rule="evenodd" d="M162.703 77.7995V70.5469C162.703 69.9065 162.504 69.2782 162.128 68.729C161.752 68.1799 161.213 67.7306 160.568 67.4291L157.367 65.9335C156.585 65.5678 155.931 65.0229 155.475 64.357C155.019 63.6911 154.778 62.9292 154.778 62.1527V59.4456C154.777 58.5812 155.113 57.7425 155.729 57.0676L165.729 47.0676C165.113 47.7425 164.777 48.5812 164.778 49.4456V52.1527C164.778 52.9292 165.019 53.6911 165.475 54.357C165.931 55.0229 166.585 55.5678 167.367 55.9335L170.568 57.4291C171.213 57.7306 171.752 58.1799 172.128 58.729C172.504 59.2782 172.703 59.9065 172.703 60.5469V67.7995L162.703 77.7995Z" fill="#DDBE69"/>
<path fill-rule="evenodd" clip-rule="evenodd" d="M155.729 57.0676C155.766 57.0271 155.804 56.9874 155.843 56.9484L165.843 46.9484C165.804 46.9874 165.766 47.0271 165.729 47.0676L155.729 57.0676Z" fill="#DDBE69"/>
<path fill-rule="evenodd" clip-rule="evenodd" d="M155.843 56.9483C156.45 56.3371 157.264 55.9104 158.17 55.7325C159.322 55.5082 160.368 54.9801 161.168 54.2192L171.168 44.2192C170.368 44.9801 169.322 45.5082 168.17 45.7325C167.264 45.9104 166.45 46.3371 165.843 46.9483L155.843 56.9483Z" fill="#DDBE69"/>
<path d="M158.17 55.7326C159.322 55.5083 160.368 54.9802 161.168 54.2193C161.967 53.4584 162.481 52.5012 162.641 51.4766C162.801 50.452 162.598 49.4091 162.061 48.4883C161.524 47.5675 160.677 46.813 159.635 46.3263L157.359 45.2625C156.494 44.8567 155.789 44.2326 155.334 43.4712C154.879 42.7099 154.696 41.8464 154.808 40.9927C154.921 40.1391 155.323 39.3346 155.964 38.6838C156.604 38.033 157.453 37.5658 158.4 37.3428L159.7 37.0437C160.53 36.8505 161.268 36.4304 161.806 35.8446C162.344 35.2588 162.655 34.5377 162.693 33.7865C162.731 33.0352 162.495 32.2929 162.018 31.6675C161.541 31.0422 160.849 30.5665 160.042 30.3096L157.993 29.6565C157.05 29.3557 156.235 28.8081 155.659 28.0879C155.083 27.3677 154.774 26.5098 154.773 25.6304C154.773 24.8911 154.607 24.1589 154.284 23.4758C153.961 22.7927 153.488 22.172 152.891 21.6492C152.294 21.1263 151.586 20.7116 150.806 20.4286C150.026 20.1456 149.191 20 148.347 20H145.351C144.507 20 143.671 20.1456 142.891 20.4286C142.111 20.7116 141.403 21.1263 140.806 21.6492C140.209 22.172 139.736 22.7927 139.413 23.4758C139.09 24.1589 138.924 24.8911 138.924 25.6304C138.924 26.5098 138.614 27.3677 138.038 28.0879C137.462 28.8081 136.647 29.3557 135.704 29.6565L133.655 30.3096C132.848 30.5665 132.156 31.0422 131.679 31.6675C131.202 32.2929 130.966 33.0352 131.004 33.7865C131.042 34.5377 131.353 35.2588 131.891 35.8446C132.429 36.4304 133.167 36.8505 133.997 37.0437L135.297 37.3428C136.244 37.5658 137.093 38.033 137.734 38.6838C138.374 39.3346 138.777 40.1391 138.889 40.9927C139.001 41.8464 138.818 42.7099 138.363 43.4712C137.908 44.2326 137.203 44.8567 136.338 45.2625L134.062 46.3263C133.02 46.813 132.174 47.5675 131.636 48.4883C131.099 49.4091 130.896 50.452 131.056 51.4766C131.216 52.5012 131.73 53.4584 132.529 54.2193C133.329 54.9802 134.375 55.5083 135.528 55.7326C136.492 55.9202 137.355 56.3904 137.973 57.0655C138.592 57.7405 138.929 58.5801 138.929 59.4456V62.1537C138.928 62.9302 138.687 63.6921 138.231 64.358C137.775 65.0239 137.121 65.5688 136.339 65.9345L133.139 67.4301C132.494 67.7316 131.954 68.1809 131.578 68.73C131.202 69.2792 131.003 69.9075 131.003 70.5479V77.7995H162.703V70.5469C162.703 69.9065 162.504 69.2782 162.128 68.729C161.752 68.1799 161.213 67.7306 160.568 67.4291L157.367 65.9335C156.585 65.5678 155.931 65.0229 155.475 64.357C155.019 63.6911 154.778 62.9292 154.778 62.1527V59.4456C154.777 58.5812 155.113 57.7425 155.729 57.0676C156.346 56.3926 157.207 55.9218 158.17 55.7326Z" fill="#FFC257"/>
<path d="M130.65 138.969V184.536H146.5H162.35V138.969H130.65Z" fill="#373D4C"/>
<path fill-rule="evenodd" clip-rule="evenodd" d="M230.153 184.536H62.8479L68.8251 184.013H236.13L230.153 184.536Z" fill="#797979"/>
<path fill-rule="evenodd" clip-rule="evenodd" d="M62.8479 184.536C61.0666 195.997 50.6902 199.197 42.8669 199.95L48.8441 199.427C56.6674 198.674 67.0438 195.474 68.8251 184.013L62.8479 184.536Z" fill="#797979"/>
<path fill-rule="evenodd" clip-rule="evenodd" d="M42.8667 199.95C41.3766 200.093 39.9791 200.148 38.7512 200.154L44.7284 199.631C45.9563 199.625 47.3538 199.57 48.8439 199.427L42.8667 199.95Z" fill="#797979"/>
<path fill-rule="evenodd" clip-rule="evenodd" d="M38.7514 200.154C38.6631 200.154 38.5751 200.157 38.4875 200.163L44.4647 199.64C44.5523 199.634 44.6403 199.631 44.7286 199.631L38.7514 200.154Z" fill="#797979"/>
<path fill-rule="evenodd" clip-rule="evenodd" d="M38.4875 200.163C38.0278 200.197 37.5806 200.317 37.1775 200.517C36.6976 200.755 36.2964 201.098 36.0133 201.513C35.7302 201.928 35.5748 202.4 35.5623 202.883C35.5499 203.366 35.6808 203.843 35.9422 204.269C39.9169 210.503 46.9455 213.242 51.7215 214.423C54.1083 215.005 56.5753 215.296 59.0529 215.287L65.0301 214.765C62.5525 214.773 60.0855 214.482 57.6987 213.9C52.9227 212.72 45.8941 209.98 41.9194 203.746C41.658 203.321 41.5271 202.843 41.5395 202.36C41.552 201.877 41.7074 201.405 41.9905 200.99C42.2736 200.575 42.6748 200.232 43.1547 199.994C43.5578 199.794 44.005 199.674 44.4647 199.641L38.4875 200.163Z" fill="#797979"/>
<path fill-rule="evenodd" clip-rule="evenodd" d="M59.053 215.287H233.948L239.925 214.765H65.0302L59.053 215.287Z" fill="#797979"/>
<path fill-rule="evenodd" clip-rule="evenodd" d="M233.948 215.287C234.839 215.291 235.73 215.255 236.616 215.181L242.593 214.658C241.707 214.732 240.816 214.768 239.925 214.765L233.948 215.287Z" fill="#797979"/>
<path fill-rule="evenodd" clip-rule="evenodd" d="M236.615 215.181C238.19 215.049 239.751 214.795 241.278 214.423C246.059 213.241 253.083 210.503 257.058 204.269C257.319 203.843 257.45 203.366 257.437 202.883C257.425 202.4 257.27 201.928 256.986 201.513C256.703 201.098 256.302 200.755 255.822 200.517C255.342 200.279 254.8 200.154 254.248 200.154L260.226 199.631C260.778 199.631 261.32 199.756 261.8 199.994C262.28 200.232 262.681 200.575 262.964 200.99C263.248 201.405 263.403 201.877 263.415 202.36C263.428 202.843 263.297 203.321 263.036 203.746C259.061 209.98 252.037 212.719 247.256 213.9C245.728 214.273 244.168 214.526 242.593 214.658L236.615 215.181Z" fill="#797979"/>
<path fill-rule="evenodd" clip-rule="evenodd" d="M254.249 200.154C246.575 200.116 232.273 198.18 230.153 184.536L236.13 184.013C238.25 197.657 252.552 199.593 260.226 199.631L254.249 200.154Z" fill="#797979"/>
<path d="M230.153 184.536H62.8478C60.7272 198.18 46.4253 200.116 38.7513 200.154C38.1997 200.154 37.6574 200.279 37.1775 200.517C36.6976 200.755 36.2964 201.098 36.0133 201.513C35.7302 201.928 35.5748 202.4 35.5623 202.883C35.5499 203.366 35.6808 203.843 35.9422 204.269C39.9169 210.503 46.9455 213.242 51.7215 214.423C54.1083 215.005 56.5753 215.296 59.0529 215.287H233.948C236.425 215.296 238.892 215.005 241.279 214.423C246.06 213.241 253.084 210.503 257.059 204.269C257.32 203.843 257.451 203.366 257.438 202.883C257.426 202.4 257.271 201.928 256.987 201.513C256.704 201.098 256.303 200.755 255.823 200.517C255.343 200.279 254.801 200.154 254.249 200.154C246.575 200.116 232.273 198.18 230.153 184.536Z" fill="#4C5768"/>
<path d="M130.65 233.428V275.292H146.5H162.35V233.428H130.65Z" fill="#373D4C"/>
<path d="M146.5 313.566H72.855V324.615H146.5H220.145V313.566H146.5Z" fill="#C12140"/>
<path d="M132.159 292.403V324.615H146.5H160.841V292.403H132.159Z" fill="#373D4C"/>
<path d="M197.844 308.212H180.482C180.18 308.212 179.891 308.107 179.677 307.92C179.464 307.733 179.344 307.48 179.344 307.215V297.452C179.344 295.17 180.379 292.982 182.221 291.368C184.063 289.755 186.561 288.849 189.166 288.849C191.771 288.849 194.269 289.755 196.111 291.368C197.953 292.982 198.988 295.17 198.988 297.452V307.215C198.988 307.48 198.868 307.733 198.654 307.92C198.441 308.107 198.151 308.212 197.849 308.212H197.844Z" fill="#373D4C"/>
<path fill-rule="evenodd" clip-rule="evenodd" d="M274.179 324.615H18.8208L20.8132 324.441H276.171L274.179 324.615Z" fill="#F04141"/>
<path fill-rule="evenodd" clip-rule="evenodd" d="M18.8207 324.615C18.423 324.615 18.0265 324.63 17.6323 324.66L19.6247 324.486C20.0189 324.456 20.4154 324.441 20.8131 324.441L18.8207 324.615Z" fill="#F04141"/>
<path fill-rule="evenodd" clip-rule="evenodd" d="M17.6324 324.66C15.5628 324.818 13.5559 325.388 11.7671 326.331C9.63772 327.454 7.89796 329.064 6.73496 330.988L0.36084 341.531L2.35324 341.357L8.72736 330.814C9.89036 328.89 11.6301 327.28 13.7595 326.157C15.5483 325.213 17.5552 324.644 19.6248 324.486L17.6324 324.66Z" fill="#F04141"/>
<path fill-rule="evenodd" clip-rule="evenodd" d="M0.36084 341.531H292.64L294.632 341.357H2.35324L0.36084 341.531Z" fill="#F04141"/>
<path fill-rule="evenodd" clip-rule="evenodd" d="M292.64 341.531L286.265 330.988C285.102 329.064 283.362 327.454 281.233 326.331C279.104 325.208 276.665 324.615 274.179 324.615L276.171 324.441C278.657 324.44 281.096 325.034 283.225 326.157C285.354 327.28 287.094 328.89 288.257 330.814L294.632 341.357L292.64 341.531Z" fill="#F04141"/>
<path d="M286.265 330.988C285.102 329.064 283.362 327.454 281.233 326.331C279.104 325.208 276.665 324.615 274.179 324.615H18.8207C16.3352 324.615 13.8966 325.208 11.7671 326.331C9.63772 327.454 7.89796 329.064 6.73496 330.988L0.36084 341.531H292.64L286.265 330.988Z" fill="#4C5768"/>
<path fill-rule="evenodd" clip-rule="evenodd" d="M248.732 241.302C248.587 241.302 248.443 241.308 248.3 241.32L250.292 241.145C250.435 241.133 250.58 241.127 250.724 241.127L248.732 241.302Z" fill="#F04141"/>
<path fill-rule="evenodd" clip-rule="evenodd" d="M248.3 241.32C247.251 241.407 246.264 241.812 245.512 242.47C244.658 243.218 244.179 244.232 244.179 245.29V249.252L246.172 249.078V245.116C246.172 244.058 246.651 243.044 247.505 242.296C248.256 241.637 249.243 241.233 250.292 241.146L248.3 241.32Z" fill="#F04141"/>
<path fill-rule="evenodd" clip-rule="evenodd" d="M244.179 249.252H183.892L185.884 249.078H246.171L244.179 249.252Z" fill="#F04141"/>
<path fill-rule="evenodd" clip-rule="evenodd" d="M183.892 249.252V245.29C183.892 244.232 183.412 243.218 182.558 242.47C181.705 241.722 180.547 241.302 179.339 241.302L181.332 241.127C182.54 241.127 183.698 241.548 184.551 242.296C185.405 243.044 185.885 244.058 185.885 245.116V249.078L183.892 249.252Z" fill="#F04141"/>
<path fill-rule="evenodd" clip-rule="evenodd" d="M179.339 241.302C179.194 241.302 179.05 241.308 178.907 241.32L180.899 241.145C181.042 241.133 181.187 241.127 181.331 241.127L179.339 241.302Z" fill="#F04141"/>
<path fill-rule="evenodd" clip-rule="evenodd" d="M178.907 241.32C177.858 241.407 176.871 241.812 176.12 242.47C175.266 243.218 174.786 244.232 174.786 245.29V271.304L176.779 271.13V245.116C176.779 244.058 177.259 243.044 178.113 242.296C178.863 241.637 179.851 241.233 180.9 241.146L178.907 241.32Z" fill="#F04141"/>
<path fill-rule="evenodd" clip-rule="evenodd" d="M174.786 271.304H118.216L120.208 271.13H176.778L174.786 271.304Z" fill="#F04141"/>
<path fill-rule="evenodd" clip-rule="evenodd" d="M118.216 271.304V245.29C118.216 244.232 117.736 243.218 116.882 242.47C116.029 241.722 114.871 241.302 113.663 241.302L115.655 241.127C116.863 241.127 118.021 241.548 118.875 242.296C119.729 243.044 120.208 244.058 120.208 245.116V271.13L118.216 271.304Z" fill="#F04141"/>
<path fill-rule="evenodd" clip-rule="evenodd" d="M113.663 241.302C113.518 241.302 113.374 241.308 113.231 241.32L115.223 241.145C115.366 241.133 115.511 241.127 115.655 241.127L113.663 241.302Z" fill="#F04141"/>
<path fill-rule="evenodd" clip-rule="evenodd" d="M113.231 241.32C112.182 241.407 111.195 241.812 110.444 242.47C109.59 243.218 109.11 244.232 109.11 245.29V249.252L111.103 249.078V245.116C111.103 244.058 111.582 243.044 112.436 242.296C113.187 241.637 114.174 241.233 115.223 241.146L113.231 241.32Z" fill="#F04141"/>
<path fill-rule="evenodd" clip-rule="evenodd" d="M109.11 249.252H48.8201L50.8125 249.078H111.102L109.11 249.252Z" fill="#F04141"/>
<path fill-rule="evenodd" clip-rule="evenodd" d="M48.82 249.252V245.29C48.82 244.232 48.3403 243.218 47.4865 242.47C46.6327 241.722 45.4746 241.302 44.2671 241.302L46.2595 241.127C47.467 241.127 48.6251 241.548 49.4789 242.296C50.3327 243.044 50.8124 244.058 50.8124 245.116V249.078L48.82 249.252Z" fill="#F04141"/>
<path fill-rule="evenodd" clip-rule="evenodd" d="M44.2671 241.302C44.1222 241.302 43.978 241.308 43.835 241.32L45.8274 241.145C45.9704 241.133 46.1146 241.127 46.2595 241.127L44.2671 241.302Z" fill="#F04141"/>
<path fill-rule="evenodd" clip-rule="evenodd" d="M43.8349 241.32C42.786 241.407 41.799 241.812 41.0476 242.47C40.1938 243.218 39.7141 244.232 39.7141 245.29V268.78C39.7177 271.564 40.9819 274.233 43.2293 276.202C45.4767 278.17 48.5237 279.278 51.702 279.281L53.6944 279.107C50.5161 279.103 47.4691 277.996 45.2217 276.027C42.9743 274.059 41.7101 271.39 41.7065 268.606V245.116C41.7065 244.058 42.1862 243.044 43.04 242.296C43.7914 241.637 44.7784 241.233 45.8273 241.146L43.8349 241.32Z" fill="#F04141"/>
<path fill-rule="evenodd" clip-rule="evenodd" d="M51.7019 279.281H241.298L243.29 279.106H53.6943L51.7019 279.281Z" fill="#F04141"/>
<path fill-rule="evenodd" clip-rule="evenodd" d="M241.298 279.281C241.679 279.28 242.059 279.264 242.435 279.232L244.428 279.058C244.051 279.09 243.672 279.106 243.29 279.106L241.298 279.281Z" fill="#F04141"/>
<path fill-rule="evenodd" clip-rule="evenodd" d="M242.435 279.232C245.196 278.999 247.793 277.934 249.77 276.201C252.017 274.233 253.281 271.564 253.284 268.78V245.29C253.284 244.232 252.805 243.218 251.951 242.47C251.097 241.722 249.939 241.302 248.732 241.302L250.724 241.127C251.931 241.127 253.089 241.548 253.943 242.296C254.797 243.044 255.276 244.058 255.276 245.116V268.605C255.273 271.389 254.009 274.058 251.762 276.027C249.785 277.759 247.188 278.825 244.428 279.058L242.435 279.232Z" fill="#F04141"/>
<path fill-rule="evenodd" clip-rule="evenodd" d="M48.8201 257.229H109.107L111.099 257.054H50.8125L48.8201 257.229Z" fill="#F04141"/>
<path fill-rule="evenodd" clip-rule="evenodd" d="M109.107 257.229V271.304L111.099 271.13V257.054L109.107 257.229Z" fill="#F04141"/>
<path fill-rule="evenodd" clip-rule="evenodd" d="M109.107 271.304H51.7019L53.6943 271.13H111.099L109.107 271.304Z" fill="#F04141"/>
<path fill-rule="evenodd" clip-rule="evenodd" d="M51.7021 271.304C50.938 271.303 50.2055 271.037 49.6652 270.564C49.1249 270.091 48.821 269.449 48.8201 268.78V257.229L50.8125 257.054V268.605C50.8134 269.275 51.1173 269.916 51.6576 270.39C52.1979 270.863 52.9304 271.129 53.6945 271.13L51.7021 271.304Z" fill="#F04141"/>
<path fill-rule="evenodd" clip-rule="evenodd" d="M241.295 271.304H183.892L185.884 271.13H243.287L241.295 271.304Z" fill="#F04141"/>
<path fill-rule="evenodd" clip-rule="evenodd" d="M183.892 271.304V257.229L185.884 257.054V271.13L183.892 271.304Z" fill="#F04141"/>
<path fill-rule="evenodd" clip-rule="evenodd" d="M183.892 257.229H244.179L246.171 257.054H185.884L183.892 257.229Z" fill="#F04141"/>
<path fill-rule="evenodd" clip-rule="evenodd" d="M244.179 257.229V268.78C244.178 269.449 243.874 270.09 243.334 270.564C242.88 270.961 242.291 271.213 241.662 271.284L243.654 271.109C244.284 271.038 244.873 270.787 245.326 270.389C245.866 269.916 246.17 269.275 246.171 268.605V257.054L244.179 257.229Z" fill="#F04141"/>
<path fill-rule="evenodd" clip-rule="evenodd" d="M241.662 271.284C241.542 271.297 241.42 271.304 241.298 271.304L243.29 271.13C243.413 271.13 243.534 271.123 243.654 271.109L241.662 271.284Z" fill="#F04141"/>
<path fill-rule="evenodd" clip-rule="evenodd" d="M241.298 271.304H241.295L243.288 271.13H243.291L241.298 271.304Z" fill="#F04141"/>
<path d="M248.732 241.302C247.524 241.302 246.366 241.722 245.512 242.47C244.658 243.218 244.179 244.232 244.179 245.29V249.252H183.892V245.29C183.892 244.232 183.412 243.218 182.558 242.47C181.705 241.722 180.547 241.302 179.339 241.302C178.132 241.302 176.973 241.722 176.12 242.47C175.266 243.218 174.786 244.232 174.786 245.29V271.304H118.216V245.29C118.216 244.232 117.736 243.218 116.882 242.47C116.029 241.722 114.871 241.302 113.663 241.302C112.456 241.302 111.297 241.722 110.444 242.47C109.59 243.218 109.11 244.232 109.11 245.29V249.252H48.82V245.29C48.82 244.232 48.3403 243.218 47.4865 242.47C46.6326 241.722 45.4746 241.302 44.2671 241.302C43.0595 241.302 41.9015 241.722 41.0476 242.47C40.1938 243.218 39.7141 244.232 39.7141 245.29V268.78C39.7177 271.564 40.9819 274.233 43.2293 276.202C45.4767 278.17 48.5237 279.278 51.702 279.281H241.298C244.476 279.277 247.523 278.17 249.77 276.201C252.017 274.233 253.281 271.564 253.284 268.78V245.29C253.284 244.232 252.805 243.218 251.951 242.47C251.097 241.722 249.939 241.302 248.732 241.302ZM48.82 268.78V257.229H109.107V271.304H51.702C50.9379 271.303 50.2054 271.037 49.6651 270.564C49.1248 270.091 48.8209 269.449 48.82 268.78ZM241.295 271.304H183.892V257.229H244.179V268.78C244.178 269.449 243.874 270.09 243.334 270.564C242.794 271.037 242.062 271.303 241.298 271.304H241.295Z" fill="#C12140"/>
<path fill-rule="evenodd" clip-rule="evenodd" d="M72.855 215.287V226.621H220.145L230.145 216.621H82.855V205.287L72.855 215.287Z" stroke="#FC8B84" stroke-width="0.3" stroke-linejoin="round"/>
<path fill-rule="evenodd" clip-rule="evenodd" d="M220.145 226.621V215.287H72.855L82.855 205.287H230.145V216.621L220.145 226.621Z" stroke="#FC8B84" stroke-width="0.3" stroke-linejoin="round"/>
<path d="M220.145 215.287H72.855V226.621H220.145V215.287Z" fill="#C12140"/>
</g>
<defs>
<filter id="filter0_d_72_2020" x="0.36084" y="0.8" width="316.471" height="351.931" filterUnits="userSpaceOnUse" color-interpolation-filters="sRGB">
<feFlood flood-opacity="0" result="BackgroundImageFix"/>
<feColorMatrix in="SourceAlpha" type="matrix" values="0 0 0 0 0 0 0 0 0 0 0 0 0 0 0 0 0 0 127 0" result="hardAlpha"/>
<feOffset dx="12" dy="1"/>
<feGaussianBlur stdDeviation="5.1"/>
<feColorMatrix type="matrix" values="0 0 0 0 0 0 0 0 0 0 0 0 0 0 0 0 0 0 0.25 0"/>
<feBlend mode="normal" in2="BackgroundImageFix" result="effect1_dropShadow_72_2020"/>
<feBlend mode="normal" in="SourceGraphic" in2="effect1_dropShadow_72_2020" result="shape"/>
</filter>
</defs>
</svg>
