<svg width="237" height="307" viewBox="0 0 237 307" fill="none" xmlns="http://www.w3.org/2000/svg">
<g filter="url(#filter0_d_72_2520)">
<path fill-rule="evenodd" clip-rule="evenodd" d="M149.697 11.2264H60.9526C60.401 40.1216 45.4091 48.6553 40.3873 50.7069C40.1783 50.7937 39.9897 50.9287 39.8349 51.1023C39.6802 51.2759 39.5631 51.4839 39.492 51.7114C39.4208 51.939 39.3974 52.1805 39.4233 52.4188C39.4493 52.6571 39.524 52.8864 39.6421 53.0903C41.1156 55.4903 43.1442 57.4415 45.5307 58.7544C48.7599 60.59 52.3595 61.549 56.0137 61.549H61.0137C57.3595 61.549 53.7599 60.59 50.5307 58.7544C48.1442 57.4415 46.1156 55.4903 44.6421 53.0903C44.524 52.8864 44.4493 52.6571 44.4233 52.4188C44.3974 52.1805 44.4208 51.939 44.492 51.7114C44.5631 51.4839 44.6802 51.2759 44.8349 51.1023C44.9897 50.9287 45.1783 50.7937 45.3873 50.7069C50.4091 48.6553 65.401 40.1216 65.9526 11.2264H154.697H149.697Z" fill="#323232" fill-opacity="0.811765"/>
<path fill-rule="evenodd" clip-rule="evenodd" d="M56.0137 61.549C56.0882 61.549 56.1628 61.5486 56.2375 61.5479H61.2375C61.1628 61.5486 61.0882 61.549 61.0137 61.549H56.0137Z" fill="#323232" fill-opacity="0.811765"/>
<path fill-rule="evenodd" clip-rule="evenodd" d="M154.412 61.5478C158.143 61.5877 161.824 60.6274 165.118 58.7544C167.505 57.4413 169.534 55.4901 171.008 53.0903C171.126 52.8863 171.2 52.657 171.226 52.4187C171.252 52.1803 171.228 51.9388 171.157 51.7113C171.086 51.4838 170.969 51.2759 170.814 51.1023C170.659 50.9287 170.471 50.7937 170.262 50.7069C165.241 48.6553 150.25 40.1216 149.697 11.2264H154.697C155.25 40.1216 170.241 48.6553 175.262 50.7069C175.471 50.7937 175.659 50.9287 175.814 51.1023C175.969 51.2759 176.086 51.4838 176.157 51.7113C176.228 51.9388 176.252 52.1803 176.226 52.4187C176.2 52.657 176.126 52.8863 176.008 53.0903C174.534 55.4901 172.505 57.4413 170.118 58.7544C166.824 60.6274 163.143 61.5877 159.412 61.5478H154.412Z" fill="#323232" fill-opacity="0.811765"/>
<path d="M149.697 11.2264H60.9526C60.401 40.1216 45.4091 48.6553 40.3873 50.7069C40.1783 50.7937 39.9897 50.9287 39.8349 51.1023C39.6802 51.2759 39.5631 51.4839 39.492 51.7114C39.4208 51.939 39.3974 52.1805 39.4233 52.4188C39.4493 52.6571 39.524 52.8864 39.6421 53.0903C41.1156 55.4903 43.1442 57.4415 45.5307 58.7544C48.8258 60.6274 52.5066 61.5877 56.2375 61.5478H154.412C158.143 61.5877 161.824 60.6274 165.118 58.7544C167.505 57.4413 169.534 55.4901 171.008 53.0903C171.126 52.8863 171.2 52.657 171.226 52.4187C171.252 52.1803 171.228 51.9388 171.157 51.7113C171.086 51.4838 170.969 51.2759 170.814 51.1023C170.659 50.9287 170.471 50.7937 170.262 50.7069C165.241 48.6553 150.25 40.1216 149.697 11.2264Z" fill="#4C5768"/>
<path fill-rule="evenodd" clip-rule="evenodd" d="M149.687 61.5479H60.9629V93.7738H65.9629V61.5479H154.687H149.687Z" fill="#2E2E2E" fill-opacity="0.811765"/>
<path fill-rule="evenodd" clip-rule="evenodd" d="M149.687 93.7738V61.5479H154.687V93.7738H149.687Z" fill="#2E2E2E" fill-opacity="0.811765"/>
<path d="M149.687 61.5479H60.9629V93.7738H149.687V61.5479Z" fill="#FFF4EB"/>
<path d="M149.687 61.5479H60.9629V67.856H149.687V61.5479Z" fill="#CEB29F"/>
<path fill-rule="evenodd" clip-rule="evenodd" d="M195.901 219.624V256.685H68.7524H73.7524H200.901V219.624H195.901Z" fill="#353535" fill-opacity="0.811765"/>
<path fill-rule="evenodd" clip-rule="evenodd" d="M68.7524 256.685V214.041H73.7524V256.685H68.7524Z" fill="#353535" fill-opacity="0.811765"/>
<path fill-rule="evenodd" clip-rule="evenodd" d="M68.7524 214.041L195.901 219.624H200.901L73.7524 214.041H68.7524Z" fill="#353535" fill-opacity="0.811765"/>
<path d="M195.901 219.624V256.685H68.7524V214.041L195.901 219.624Z" fill="#FFF4EB"/>
<path d="M68.7524 256.685H86.668V228.504H195.901V219.624L68.7524 214.041V256.685Z" fill="#CEB29F"/>
<path fill-rule="evenodd" clip-rule="evenodd" d="M105.325 120.573H39.6162V146.749H44.6162V120.573H110.325H105.325Z" fill="#323333" fill-opacity="0.811765"/>
<path fill-rule="evenodd" clip-rule="evenodd" d="M171.034 146.749V120.573H176.034V146.749H171.034Z" fill="#323333" fill-opacity="0.811765"/>
<path d="M105.325 120.573H39.6162V146.749H105.325H171.034V120.573H105.325Z" fill="#CEB29F"/>
<path fill-rule="evenodd" clip-rule="evenodd" d="M105.325 158.667H27.8096V207.074H32.8096V158.667H110.325H105.325Z" fill="#2F3030" fill-opacity="0.811765"/>
<path fill-rule="evenodd" clip-rule="evenodd" d="M182.841 207.074V158.667H187.841V207.074H182.841Z" fill="#2F3030" fill-opacity="0.811765"/>
<path d="M105.325 158.667H27.8096V207.074H105.325H182.841V158.667H105.325Z" fill="#FFF4EB"/>
<path d="M90.5988 174.445H75.6891C75.2484 174.445 74.8911 174.827 74.8911 175.299V184.816C74.8911 185.288 75.2484 185.67 75.6891 185.67H90.5988C91.0395 185.67 91.3968 185.288 91.3968 184.816V175.299C91.3968 174.827 91.0395 174.445 90.5988 174.445Z" fill="#47413F"/>
<path fill-rule="evenodd" clip-rule="evenodd" d="M176.165 93.7738H34.4847C32.8285 102.505 29.1868 110.664 23.8819 117.53C23.6713 117.801 23.5372 118.13 23.4952 118.48C23.4531 118.829 23.5049 119.184 23.6444 119.503C23.7839 119.822 24.0054 120.092 24.283 120.282C24.5607 120.471 24.8829 120.572 25.2121 120.573H30.2121C29.8829 120.572 29.5607 120.471 29.283 120.282C29.0054 120.092 28.7839 119.822 28.6444 119.503C28.5049 119.184 28.4531 118.829 28.4952 118.48C28.5372 118.13 28.6713 117.801 28.8819 117.53C34.1868 110.664 37.8285 102.505 39.4847 93.7738H181.165H176.165Z" fill="#353535" fill-opacity="0.811765"/>
<path fill-rule="evenodd" clip-rule="evenodd" d="M185.438 120.573C185.767 120.572 186.089 120.471 186.367 120.282C186.644 120.092 186.866 119.822 187.005 119.503C187.145 119.184 187.197 118.829 187.155 118.48C187.112 118.13 186.978 117.801 186.768 117.53C181.463 110.664 177.821 102.505 176.165 93.7738H181.165C182.821 102.505 186.463 110.664 191.768 117.53C191.978 117.801 192.112 118.13 192.155 118.48C192.197 118.829 192.145 119.184 192.005 119.503C191.866 119.822 191.644 120.092 191.367 120.282C191.089 120.471 190.767 120.572 190.438 120.573H185.438Z" fill="#353535" fill-opacity="0.811765"/>
<path d="M176.165 93.7738H34.4847C32.8285 102.505 29.1868 110.664 23.8819 117.53C23.6713 117.801 23.5372 118.13 23.4952 118.48C23.4531 118.829 23.5049 119.184 23.6444 119.503C23.7839 119.822 24.0054 120.092 24.283 120.282C24.5607 120.471 24.8829 120.572 25.2121 120.573H185.438C185.767 120.572 186.089 120.471 186.367 120.282C186.644 120.092 186.866 119.822 187.005 119.503C187.145 119.184 187.197 118.829 187.155 118.48C187.112 118.13 186.978 117.801 186.768 117.53C181.463 110.664 177.821 102.505 176.165 93.7738Z" fill="#4C5768"/>
<path d="M148.974 120.573C139.152 112.591 130.071 103.617 121.856 93.7738H88.795C80.5797 103.617 71.4986 112.591 61.6772 120.573H148.974Z" fill="#2F3A47"/>
<path d="M120.052 185.67H134.961C135.402 185.67 135.759 185.288 135.759 184.816V175.298C135.759 174.827 135.402 174.445 134.961 174.445H120.052C119.611 174.445 119.254 174.827 119.254 175.298V184.816C119.254 185.288 119.611 185.67 120.052 185.67Z" fill="#47413F"/>
<path d="M117.601 234.011H102.691C102.25 234.011 101.893 234.393 101.893 234.865V244.383C101.893 244.854 102.25 245.237 102.691 245.237H117.601C118.041 245.237 118.399 244.854 118.399 244.383V234.865C118.399 234.393 118.041 234.011 117.601 234.011Z" fill="#47413F"/>
<path d="M182.84 158.667H27.8096V207.074H74.9469L82.0962 199.052C82.0962 199.052 66.3894 190.028 53.68 175.132C53.3117 174.705 53.0673 174.173 52.9769 173.601C52.8864 173.028 52.9538 172.44 53.1707 171.907C53.3877 171.375 53.7448 170.922 54.1985 170.603C54.6521 170.285 55.1827 170.115 55.7253 170.113H182.84V158.667Z" fill="#CEB29F"/>
<path d="M147.054 245.238H161.964C162.404 245.238 162.762 244.855 162.762 244.384V234.866C162.762 234.394 162.404 234.012 161.964 234.012H147.054C146.613 234.012 146.256 234.394 146.256 234.866V244.384C146.256 244.855 146.613 245.238 147.054 245.238Z" fill="#47413F"/>
<path fill-rule="evenodd" clip-rule="evenodd" d="M181.721 162.744C184.279 162.757 186.802 162.101 189.069 160.833C191.32 159.584 193.316 157.867 194.939 155.782C196.562 153.698 197.781 151.287 198.523 148.693C198.583 148.479 198.593 148.253 198.554 148.033C198.514 147.814 198.426 147.609 198.297 147.434C198.167 147.259 198 147.12 197.809 147.029C197.645 146.951 197.469 146.91 197.29 146.909H202.29C202.469 146.91 202.645 146.951 202.809 147.029C203 147.12 203.167 147.259 203.297 147.434C203.426 147.609 203.514 147.814 203.554 148.033C203.593 148.253 203.583 148.479 203.523 148.693C202.781 151.287 201.562 153.698 199.939 155.782C198.316 157.867 196.32 159.584 194.069 160.833C191.802 162.101 189.279 162.757 186.721 162.744H181.721Z" fill="#6580E1" fill-opacity="0.6"/>
<path fill-rule="evenodd" clip-rule="evenodd" d="M197.29 146.909C197.261 146.909 197.232 146.91 197.203 146.912H202.203C202.232 146.91 202.261 146.909 202.29 146.909H197.29Z" fill="#6580E1" fill-opacity="0.6"/>
<path fill-rule="evenodd" clip-rule="evenodd" d="M197.203 146.912C196.141 146.991 195.079 147.034 194.019 147.041H199.019C200.079 147.034 201.141 146.991 202.203 146.912H197.203Z" fill="#6580E1" fill-opacity="0.6"/>
<path fill-rule="evenodd" clip-rule="evenodd" d="M194.019 147.041C177.409 147.163 161.097 138.732 147.081 127.984H152.081C166.097 138.732 182.409 147.163 199.019 147.041H194.019Z" fill="#6580E1" fill-opacity="0.6"/>
<path fill-rule="evenodd" clip-rule="evenodd" d="M147.081 127.984H63.57C49.8493 138.503 33.9348 146.803 17.6934 147.038H22.6934C38.9348 146.803 54.8493 138.503 68.57 127.984H152.081H147.081Z" fill="#6580E1" fill-opacity="0.6"/>
<path fill-rule="evenodd" clip-rule="evenodd" d="M17.6933 147.037C16.281 147.058 14.8662 147.017 13.4502 146.912H18.4502C19.8662 147.017 21.281 147.058 22.6933 147.037H17.6933Z" fill="#6580E1" fill-opacity="0.6"/>
<path fill-rule="evenodd" clip-rule="evenodd" d="M13.4503 146.912C13.4293 146.911 13.4082 146.91 13.3872 146.91H18.3872C18.4082 146.91 18.4293 146.911 18.4503 146.912H13.4503Z" fill="#6580E1" fill-opacity="0.6"/>
<path fill-rule="evenodd" clip-rule="evenodd" d="M13.387 146.91C13.1979 146.908 13.0104 146.951 12.8377 147.035C12.6459 147.128 12.4781 147.27 12.3489 147.448C12.2197 147.626 12.1328 147.836 12.0959 148.058C12.0589 148.28 12.0729 148.508 12.1366 148.723C12.8813 151.311 14.1 153.715 15.7216 155.794C17.3432 157.874 19.3354 159.587 21.5819 160.833C23.8494 162.101 26.3717 162.757 28.9299 162.744H33.9299C31.3717 162.757 28.8494 162.101 26.5819 160.833C24.3354 159.587 22.3432 157.874 20.7216 155.794C19.1 153.715 17.8813 151.311 17.1366 148.723C17.0729 148.508 17.0589 148.28 17.0959 148.058C17.1328 147.836 17.2197 147.626 17.3489 147.448C17.4781 147.27 17.6459 147.128 17.8377 147.035C18.0104 146.951 18.1979 146.908 18.387 146.91H13.387Z" fill="#6580E1" fill-opacity="0.6"/>
<path d="M12.1366 148.723C12.8813 151.312 14.1 153.715 15.7216 155.795C17.3432 157.874 19.3354 159.587 21.5819 160.833C23.8494 162.101 26.3717 162.757 28.9299 162.744H181.721C184.279 162.757 186.802 162.101 189.069 160.833C191.32 159.584 193.316 157.867 194.939 155.782C196.562 153.698 197.781 151.287 198.523 148.693C198.583 148.479 198.593 148.253 198.554 148.034C198.514 147.814 198.426 147.609 198.297 147.434C198.167 147.259 198 147.12 197.809 147.029C197.619 146.939 197.411 146.898 197.203 146.912C179.501 148.23 161.992 139.418 147.081 127.984H63.5699C48.6561 139.418 31.1503 148.23 13.4501 146.912C13.2397 146.899 13.0295 146.941 12.8377 147.035C12.6459 147.128 12.4781 147.27 12.3489 147.448C12.2197 147.627 12.1328 147.836 12.0959 148.058C12.0589 148.28 12.0729 148.508 12.1366 148.723Z" fill="#4C5768"/>
<path d="M104.516 84.8292C100.457 90.5453 81.54 116.147 57.0719 132.675C56.8847 132.8 56.7408 132.987 56.6618 133.208C56.5829 133.428 56.5733 133.67 56.6345 133.897C56.6958 134.124 56.8244 134.324 57.0011 134.465C57.1777 134.607 57.3927 134.683 57.6134 134.682H153.041C153.261 134.683 153.476 134.606 153.652 134.465C153.828 134.323 153.957 134.124 154.018 133.897C154.079 133.67 154.07 133.429 153.992 133.208C153.913 132.988 153.77 132.8 153.583 132.675C129.107 116.147 110.193 90.5453 106.139 84.8292C106.044 84.6946 105.922 84.5853 105.781 84.51C105.64 84.4348 105.485 84.3956 105.327 84.3956C105.17 84.3956 105.015 84.4348 104.874 84.51C104.733 84.5853 104.611 84.6946 104.516 84.8292Z" fill="#4C5768"/>
<path d="M104.139 101.153C100.535 106.116 89.0394 121.079 74.2496 131.743C73.9819 131.934 73.7788 132.212 73.6703 132.537C73.5618 132.861 73.5537 133.214 73.6471 133.543C73.7405 133.873 73.9305 134.162 74.1891 134.367C74.4476 134.572 74.761 134.683 75.0828 134.682H135.567C135.889 134.682 136.202 134.572 136.461 134.366C136.719 134.161 136.909 133.873 137.002 133.543C137.096 133.213 137.087 132.86 136.979 132.536C136.87 132.212 136.667 131.934 136.4 131.743C121.61 121.079 110.116 106.116 106.511 101.153C106.371 100.959 106.191 100.803 105.985 100.695C105.78 100.587 105.554 100.531 105.325 100.531C105.096 100.531 104.87 100.587 104.665 100.695C104.459 100.803 104.28 100.959 104.139 101.153Z" fill="#FFF4EB"/>
<path d="M111.598 116.45H99.0524C98.6117 116.45 98.2544 116.832 98.2544 117.304V125.214C98.2544 125.686 98.6117 126.068 99.0524 126.068H111.598C112.039 126.068 112.396 125.686 112.396 125.214V117.304C112.396 116.832 112.039 116.45 111.598 116.45Z" fill="#47413F"/>
<path fill-rule="evenodd" clip-rule="evenodd" d="M189.949 199.052C193.584 199.052 197.07 200.598 199.641 203.349L213.536 218.215C213.779 218.474 213.944 218.805 214.011 219.166C214.078 219.526 214.044 219.899 213.913 220.239C213.781 220.578 213.559 220.868 213.273 221.072C212.988 221.276 212.652 221.385 212.309 221.385H217.309C217.652 221.385 217.988 221.276 218.273 221.072C218.559 220.868 218.781 220.578 218.913 220.239C219.044 219.899 219.078 219.526 219.011 219.166C218.944 218.805 218.779 218.474 218.536 218.215L204.641 203.349C202.07 200.598 198.584 199.052 194.949 199.052H189.949Z" fill="#333333" fill-opacity="0.811765"/>
<path fill-rule="evenodd" clip-rule="evenodd" d="M68.7524 221.385V199.052H73.7524V221.385H68.7524Z" fill="#333333" fill-opacity="0.811765"/>
<path d="M68.7524 199.052H189.949C193.584 199.052 197.07 200.598 199.641 203.349L213.536 218.215C213.779 218.474 213.944 218.805 214.011 219.166C214.078 219.526 214.044 219.899 213.913 220.239C213.781 220.578 213.559 220.868 213.273 221.072C212.988 221.276 212.652 221.385 212.309 221.385H68.7524V199.052Z" fill="#4C5768"/>
<path d="M96.7562 207.475C91.7305 204.954 86.8367 202.142 82.0963 199.052H68.7524V221.389H90.7025L97.3069 209.347C97.3949 209.188 97.4506 209.011 97.4703 208.827C97.49 208.643 97.4734 208.456 97.4215 208.28C97.3695 208.103 97.2834 207.94 97.1688 207.802C97.0542 207.663 96.9136 207.552 96.7562 207.475Z" fill="#2F3A47"/>
<path fill-rule="evenodd" clip-rule="evenodd" d="M195.901 256.685H68.7524V294.395H73.7524V256.685H200.901H195.901Z" fill="#2F3030" fill-opacity="0.811765"/>
<path fill-rule="evenodd" clip-rule="evenodd" d="M195.901 294.395V256.685H200.901V294.395H195.901Z" fill="#2F3030" fill-opacity="0.811765"/>
<path d="M195.901 256.685H68.7524V294.395H195.901V256.685Z" fill="#665E5B"/>
<path d="M44.5052 185.67L11.7017 210.22V241.529H44.5052H77.3087V210.22L44.5052 185.67Z" fill="#FFF4EB"/>
<path d="M60.9526 11.2264V5.2771C60.9525 5.12484 61.0008 4.97706 61.0895 4.85804C61.1782 4.73901 61.3021 4.65582 61.4408 4.62211C61.5796 4.58841 61.7249 4.60621 61.853 4.67258C61.981 4.73895 62.0841 4.84995 62.1454 4.98735L66.609 11.2264H60.9526Z" fill="#4C5768"/>
<path d="M149.687 11.2264V5.2771C149.687 5.12484 149.639 4.97706 149.55 4.85804C149.461 4.73901 149.337 4.65582 149.198 4.62211C149.06 4.58841 148.914 4.60621 148.786 4.67258C148.658 4.73895 148.555 4.84995 148.494 4.98735L144.03 11.2264H149.687Z" fill="#4C5768"/>
<path d="M11.7017 210.22V224.483C20.9658 218.996 34.5955 209.99 44.5052 200.199C55.647 210.928 69.4108 219.792 77.3087 224.116V210.22L44.5052 185.67L11.7017 210.22Z" fill="#CEB29F"/>
<path d="M140.369 256.685H134.501V272.401H106.045V256.685H100.177V272.401H68.7524V278.68H100.177V294.396H106.045V278.68H134.501V294.396H140.369V278.68V272.401V256.685Z" fill="#473F3B"/>
<path d="M174.694 272.401V256.685H168.826V272.401H146.692V278.68H168.826V294.396H174.694V278.68H195.901V272.401H174.694Z" fill="#473F3B"/>
<path d="M42.9952 175.118C30.1065 191.244 0.952637 207.074 0.952637 207.074L5.16225 214.332C5.7525 215.346 6.67938 216.083 7.75656 216.395C8.83373 216.707 9.98135 216.571 10.9687 216.014C25.2774 208.009 39.4494 195.515 43.4143 191.914C43.7184 191.637 44.1047 191.485 44.504 191.485C44.9033 191.485 45.2896 191.637 45.5937 191.914C49.5586 195.515 63.7306 208.009 78.0393 216.014C79.0266 216.571 80.1743 216.707 81.2514 216.395C82.3286 216.083 83.2555 215.346 83.8457 214.332L88.0553 207.074C88.0553 207.074 58.9015 191.244 46.0128 175.118C45.8272 174.884 45.5961 174.695 45.3355 174.566C45.0749 174.437 44.7912 174.37 44.504 174.37C44.2168 174.37 43.9331 174.437 43.6725 174.566C43.4119 174.695 43.1808 174.884 42.9952 175.118Z" fill="#4C5768"/>
<path d="M86.668 256.685H68.7524V294.395H86.668V256.685Z" fill="#473F3B"/>
<path d="M77.3087 241.529H11.7017V294.395H77.3087V241.529Z" fill="#665E5B"/>
<path d="M35.9568 241.529H30.0892V264.823H11.7017V271.103H30.0892V294.396H35.9568V271.103V264.823V241.529Z" fill="#473F3B"/>
<path d="M77.3085 264.823H58.6754L58.5312 241.529H52.6636L52.8077 264.823H41.0439V271.103H52.8463L52.9905 294.396H58.8581L58.7139 271.103H77.3085V264.823Z" fill="#473F3B"/>
<path d="M90.815 64.9261H84.9473V77.8994H60.9629V84.1788H84.9473V93.7738H90.815V84.1788V77.8994V64.9261Z" fill="#CEB29F"/>
<path d="M125.703 77.8994V64.9261H119.835V77.8994H95.4443V84.1788H119.835V93.7738H125.703V84.1788H149.687V77.8994H125.703Z" fill="#CEB29F"/>
</g>
<defs>
<filter id="filter0_d_72_2520" x="0.952637" y="0.605469" width="235.092" height="305.79" filterUnits="userSpaceOnUse" color-interpolation-filters="sRGB">
<feFlood flood-opacity="0" result="BackgroundImageFix"/>
<feColorMatrix in="SourceAlpha" type="matrix" values="0 0 0 0 0 0 0 0 0 0 0 0 0 0 0 0 0 0 127 0" result="hardAlpha"/>
<feOffset dx="9" dy="4"/>
<feGaussianBlur stdDeviation="4"/>
<feComposite in2="hardAlpha" operator="out"/>
<feColorMatrix type="matrix" values="0 0 0 0 0 0 0 0 0 0 0 0 0 0 0 0 0 0 0.25 0"/>
<feBlend mode="normal" in2="BackgroundImageFix" result="effect1_dropShadow_72_2520"/>
<feBlend mode="normal" in="SourceGraphic" in2="effect1_dropShadow_72_2520" result="shape"/>
</filter>
</defs>
</svg>
